<svg width="751" height="393" viewBox="0 0 751 393" fill="none" xmlns="http://www.w3.org/2000/svg">
<rect width="751" height="393" rx="20" fill="white"/>
<path d="M344.119 71.2902H340.002C339.885 70.615 339.668 70.0169 339.353 69.4958C339.037 68.9674 338.644 68.5197 338.175 68.1528C337.705 67.7858 337.169 67.5106 336.567 67.3271C335.973 67.1363 335.331 67.0409 334.641 67.0409C333.415 67.0409 332.329 67.3491 331.382 67.9656C330.436 68.5748 329.694 69.4701 329.159 70.6517C328.623 71.8259 328.355 73.2607 328.355 74.956C328.355 76.6807 328.623 78.1338 329.159 79.3154C329.702 80.4896 330.443 81.3777 331.382 81.9795C332.329 82.5739 333.412 82.8712 334.63 82.8712C335.305 82.8712 335.936 82.7831 336.523 82.607C337.118 82.4235 337.65 82.1556 338.12 81.8033C338.597 81.4511 338.997 81.0181 339.32 80.5043C339.65 79.9906 339.877 79.4035 340.002 78.743L344.119 78.765C343.965 79.8365 343.631 80.8419 343.118 81.7813C342.611 82.7207 341.947 83.55 341.125 84.2692C340.303 84.9811 339.342 85.5389 338.241 85.9425C337.14 86.3388 335.918 86.537 334.575 86.537C332.593 86.537 330.825 86.0783 329.269 85.1609C327.713 84.2436 326.487 82.9189 325.592 81.1869C324.697 79.4548 324.249 77.3779 324.249 74.956C324.249 72.5268 324.7 70.4499 325.603 68.7252C326.506 66.9932 327.735 65.6685 329.291 64.7511C330.847 63.8338 332.608 63.3751 334.575 63.3751C335.83 63.3751 336.997 63.5512 338.076 63.9035C339.154 64.2557 340.116 64.7731 340.96 65.4557C341.804 66.1309 342.497 66.9602 343.04 67.9436C343.591 68.9197 343.951 70.0352 344.119 71.2902ZM355.059 86.559C353.408 86.559 351.977 86.1957 350.766 85.4692C349.555 84.7426 348.615 83.7262 347.948 82.4198C347.287 81.1135 346.957 79.587 346.957 77.8403C346.957 76.0936 347.287 74.5634 347.948 73.2497C348.615 71.936 349.555 70.9159 350.766 70.1893C351.977 69.4628 353.408 69.0995 355.059 69.0995C356.71 69.0995 358.141 69.4628 359.352 70.1893C360.563 70.9159 361.499 71.936 362.16 73.2497C362.827 74.5634 363.161 76.0936 363.161 77.8403C363.161 79.587 362.827 81.1135 362.16 82.4198C361.499 83.7262 360.563 84.7426 359.352 85.4692C358.141 86.1957 356.71 86.559 355.059 86.559ZM355.081 83.3665C355.976 83.3665 356.725 83.1207 357.327 82.629C357.929 82.1299 358.376 81.4621 358.67 80.6254C358.971 79.7888 359.121 78.8567 359.121 77.8293C359.121 76.7945 358.971 75.8587 358.67 75.0221C358.376 74.1781 357.929 73.5066 357.327 73.0075C356.725 72.5085 355.976 72.2589 355.081 72.2589C354.164 72.2589 353.4 72.5085 352.791 73.0075C352.189 73.5066 351.738 74.1781 351.437 75.0221C351.144 75.8587 350.997 76.7945 350.997 77.8293C350.997 78.8567 351.144 79.7888 351.437 80.6254C351.738 81.4621 352.189 82.1299 352.791 82.629C353.4 83.1207 354.164 83.3665 355.081 83.3665ZM366.544 86.2288V69.3197H370.353V72.1929H370.551C370.903 71.2241 371.487 70.4682 372.301 69.9251C373.116 69.3747 374.088 69.0995 375.218 69.0995C376.363 69.0995 377.328 69.3784 378.114 69.9361C378.906 70.4866 379.464 71.2388 379.787 72.1929H379.963C380.337 71.2535 380.969 70.5049 381.857 69.9472C382.752 69.3821 383.812 69.0995 385.038 69.0995C386.594 69.0995 387.864 69.5912 388.847 70.5746C389.83 71.5581 390.322 72.9928 390.322 74.879V86.2288H386.326V75.4954C386.326 74.446 386.047 73.679 385.489 73.1947C384.932 72.703 384.249 72.4571 383.442 72.4571C382.48 72.4571 381.728 72.758 381.185 73.3598C380.649 73.9543 380.381 74.7285 380.381 75.6826V86.2288H376.473V75.3303C376.473 74.457 376.209 73.7598 375.681 73.2387C375.16 72.7176 374.477 72.4571 373.633 72.4571C373.061 72.4571 372.54 72.6039 372.07 72.8974C371.6 73.1837 371.226 73.591 370.947 74.1194C370.668 74.6405 370.529 75.2496 370.529 75.9468V86.2288H366.544ZM394.365 92.5697V69.3197H398.284V72.1158H398.515C398.721 71.7048 399.011 71.2682 399.385 70.8058C399.759 70.3361 400.266 69.9361 400.904 69.6059C401.543 69.2683 402.357 69.0995 403.348 69.0995C404.654 69.0995 405.832 69.4334 406.882 70.1013C407.938 70.7618 408.775 71.7415 409.392 73.0405C410.015 74.3322 410.327 75.9174 410.327 77.7962C410.327 79.653 410.023 81.2309 409.414 82.5299C408.804 83.8289 407.975 84.8197 406.926 85.5022C405.876 86.1847 404.687 86.526 403.359 86.526C402.39 86.526 401.587 86.3645 400.948 86.0416C400.31 85.7187 399.796 85.3297 399.407 84.8747C399.025 84.4124 398.728 83.9757 398.515 83.5647H398.35V92.5697H394.365ZM398.273 77.7742C398.273 78.8677 398.427 79.8255 398.735 80.6474C399.051 81.4694 399.502 82.1116 400.089 82.5739C400.684 83.0289 401.403 83.2565 402.247 83.2565C403.128 83.2565 403.865 83.0216 404.46 82.5519C405.054 82.0749 405.502 81.4254 405.803 80.6034C406.111 79.7741 406.265 78.831 406.265 77.7742C406.265 76.7247 406.115 75.7927 405.814 74.978C405.513 74.1634 405.065 73.5249 404.471 73.0626C403.876 72.6002 403.135 72.369 402.247 72.369C401.396 72.369 400.673 72.5929 400.078 73.0405C399.484 73.4882 399.033 74.1157 398.724 74.923C398.423 75.7303 398.273 76.6807 398.273 77.7742ZM417.725 63.6833V86.2288H413.74V63.6833H417.725ZM429.309 86.559C427.613 86.559 426.149 86.2067 424.916 85.5022C423.691 84.7903 422.748 83.7849 422.087 82.4859C421.427 81.1795 421.096 79.642 421.096 77.8733C421.096 76.1339 421.427 74.6074 422.087 73.2937C422.755 71.9727 423.687 70.9453 424.883 70.2114C426.08 69.4701 427.485 69.0995 429.1 69.0995C430.142 69.0995 431.125 69.2683 432.05 69.6059C432.982 69.9361 433.804 70.4499 434.516 71.1471C435.235 71.8443 435.8 72.7323 436.211 73.8111C436.622 74.8826 436.828 76.1596 436.828 77.6421V78.8641H422.968V76.178H433.008C433 75.4147 432.835 74.7359 432.512 74.1414C432.189 73.5396 431.738 73.0662 431.158 72.7213C430.586 72.3764 429.918 72.2039 429.155 72.2039C428.34 72.2039 427.624 72.4021 427.008 72.7984C426.392 73.1873 425.911 73.7011 425.566 74.3396C425.228 74.9707 425.056 75.6642 425.048 76.4202V78.765C425.048 79.7484 425.228 80.5924 425.588 81.2969C425.948 81.9941 426.45 82.5299 427.096 82.9042C427.742 83.2711 428.498 83.4546 429.364 83.4546C429.944 83.4546 430.468 83.3739 430.938 83.2124C431.408 83.0436 431.815 82.7978 432.16 82.4749C432.505 82.1519 432.765 81.752 432.942 81.2749L436.662 81.6932C436.428 82.6767 435.98 83.5353 435.319 84.2692C434.666 84.9958 433.83 85.5609 432.809 85.9646C431.789 86.3609 430.622 86.559 429.309 86.559ZM448.642 69.3197V72.4021H438.922V69.3197H448.642ZM441.322 65.2685H445.307V81.1428C445.307 81.6786 445.388 82.0896 445.549 82.3758C445.718 82.6547 445.938 82.8455 446.21 82.9482C446.481 83.051 446.782 83.1023 447.112 83.1023C447.362 83.1023 447.589 83.084 447.795 83.0473C448.008 83.0106 448.169 82.9776 448.279 82.9482L448.951 86.0636C448.738 86.137 448.433 86.2178 448.037 86.3058C447.648 86.3939 447.171 86.4453 446.606 86.4599C445.608 86.4893 444.709 86.3388 443.909 86.0086C443.109 85.671 442.474 85.1499 442.004 84.4454C441.542 83.7408 441.314 82.8602 441.322 81.8033V65.2685ZM459.279 86.559C457.584 86.559 456.12 86.2067 454.887 85.5022C453.661 84.7903 452.718 83.7849 452.058 82.4859C451.397 81.1795 451.067 79.642 451.067 77.8733C451.067 76.1339 451.397 74.6074 452.058 73.2937C452.726 71.9727 453.658 70.9453 454.854 70.2114C456.05 69.4701 457.456 69.0995 459.07 69.0995C460.112 69.0995 461.096 69.2683 462.021 69.6059C462.953 69.9361 463.775 70.4499 464.487 71.1471C465.206 71.8443 465.771 72.7323 466.182 73.8111C466.593 74.8826 466.798 76.1596 466.798 77.6421V78.8641H452.939V76.178H462.978C462.971 75.4147 462.806 74.7359 462.483 74.1414C462.16 73.5396 461.709 73.0662 461.129 72.7213C460.556 72.3764 459.889 72.2039 459.125 72.2039C458.311 72.2039 457.595 72.4021 456.979 72.7984C456.362 73.1873 455.882 73.7011 455.537 74.3396C455.199 74.9707 455.027 75.6642 455.019 76.4202V78.765C455.019 79.7484 455.199 80.5924 455.559 81.2969C455.918 81.9941 456.421 82.5299 457.067 82.9042C457.713 83.2711 458.469 83.4546 459.335 83.4546C459.914 83.4546 460.439 83.3739 460.909 83.2124C461.378 83.0436 461.786 82.7978 462.131 82.4749C462.476 82.1519 462.736 81.752 462.912 81.2749L466.633 81.6932C466.398 82.6767 465.951 83.5353 465.29 84.2692C464.637 84.9958 463.8 85.5609 462.78 85.9646C461.76 86.3609 460.593 86.559 459.279 86.559ZM476.494 63.6833H481.107L486.622 73.657H486.842L492.357 63.6833H496.97L488.769 77.8182V86.2288H484.695V77.8182L476.494 63.6833ZM503.914 86.559C502.262 86.559 500.831 86.1957 499.62 85.4692C498.409 84.7426 497.47 83.7262 496.802 82.4198C496.142 81.1135 495.811 79.587 495.811 77.8403C495.811 76.0936 496.142 74.5634 496.802 73.2497C497.47 71.936 498.409 70.9159 499.62 70.1893C500.831 69.4628 502.262 69.0995 503.914 69.0995C505.565 69.0995 506.996 69.4628 508.207 70.1893C509.418 70.9159 510.354 71.936 511.014 73.2497C511.682 74.5634 512.016 76.0936 512.016 77.8403C512.016 79.587 511.682 81.1135 511.014 82.4198C510.354 83.7262 509.418 84.7426 508.207 85.4692C506.996 86.1957 505.565 86.559 503.914 86.559ZM503.936 83.3665C504.831 83.3665 505.579 83.1207 506.181 82.629C506.783 82.1299 507.231 81.4621 507.524 80.6254C507.825 79.7888 507.976 78.8567 507.976 77.8293C507.976 76.7945 507.825 75.8587 507.524 75.0221C507.231 74.1781 506.783 73.5066 506.181 73.0075C505.579 72.5085 504.831 72.2589 503.936 72.2589C503.018 72.2589 502.255 72.5085 501.646 73.0075C501.044 73.5066 500.593 74.1781 500.292 75.0221C499.998 75.8587 499.851 76.7945 499.851 77.8293C499.851 78.8567 499.998 79.7888 500.292 80.6254C500.593 81.4621 501.044 82.1299 501.646 82.629C502.255 83.1207 503.018 83.3665 503.936 83.3665ZM526.176 79.1173V69.3197H530.161V86.2288H526.297V83.2234H526.12C525.739 84.1702 525.111 84.9444 524.238 85.5462C523.372 86.148 522.304 86.4489 521.035 86.4489C519.926 86.4489 518.947 86.2031 518.095 85.7114C517.251 85.2123 516.591 84.4894 516.114 83.5427C515.637 82.5886 515.398 81.4364 515.398 80.086V69.3197H519.383V79.4695C519.383 80.541 519.677 81.3923 520.264 82.0235C520.851 82.6547 521.622 82.9702 522.576 82.9702C523.163 82.9702 523.732 82.8271 524.282 82.5409C524.832 82.2547 525.284 81.829 525.636 81.2639C525.996 80.6915 526.176 79.9759 526.176 79.1173ZM534.259 86.2288V69.3197H538.123V72.1379H538.299C538.607 71.1618 539.135 70.4095 539.884 69.8811C540.64 69.3454 541.502 69.0775 542.471 69.0775C542.691 69.0775 542.937 69.0885 543.208 69.1105C543.487 69.1252 543.719 69.1509 543.902 69.1876V72.8534C543.733 72.7947 543.465 72.7433 543.098 72.6993C542.739 72.6479 542.39 72.6222 542.053 72.6222C541.326 72.6222 540.673 72.78 540.093 73.0956C539.521 73.4038 539.069 73.8332 538.739 74.3836C538.409 74.934 538.244 75.5688 538.244 76.2881V86.2288H534.259ZM554.415 86.2288V63.6833H568.858V67.107H558.499V73.2277H567.868V76.6513H558.499V86.2288H554.415ZM572.403 86.2288V69.3197H576.388V86.2288H572.403ZM574.407 66.9198C573.775 66.9198 573.232 66.7106 572.777 66.2923C572.322 65.8667 572.095 65.3566 572.095 64.7621C572.095 64.1603 572.322 63.6503 572.777 63.232C573.232 62.8063 573.775 62.5935 574.407 62.5935C575.045 62.5935 575.588 62.8063 576.036 63.232C576.491 63.6503 576.718 64.1603 576.718 64.7621C576.718 65.3566 576.491 65.8667 576.036 66.2923C575.588 66.7106 575.045 66.9198 574.407 66.9198ZM584.471 63.6833V86.2288H580.486V63.6833H584.471ZM588.569 86.2288V69.3197H592.554V86.2288H588.569ZM590.573 66.9198C589.941 66.9198 589.398 66.7106 588.943 66.2923C588.488 65.8667 588.261 65.3566 588.261 64.7621C588.261 64.1603 588.488 63.6503 588.943 63.232C589.398 62.8063 589.941 62.5935 590.573 62.5935C591.211 62.5935 591.754 62.8063 592.202 63.232C592.657 63.6503 592.884 64.1603 592.884 64.7621C592.884 65.3566 592.657 65.8667 592.202 66.2923C591.754 66.7106 591.211 66.9198 590.573 66.9198ZM600.637 76.3211V86.2288H596.652V69.3197H600.461V72.1929H600.659C601.048 71.2462 601.668 70.4939 602.52 69.9361C603.378 69.3784 604.439 69.0995 605.701 69.0995C606.868 69.0995 607.884 69.349 608.75 69.8481C609.624 70.3471 610.299 71.07 610.776 72.0168C611.26 72.9635 611.499 74.112 611.492 75.4624V86.2288H607.506V76.0789C607.506 74.9487 607.213 74.0643 606.626 73.4258C606.046 72.7874 605.242 72.4681 604.215 72.4681C603.518 72.4681 602.898 72.6222 602.354 72.9305C601.819 73.2314 601.397 73.668 601.089 74.2405C600.788 74.8129 600.637 75.5065 600.637 76.3211ZM622.896 92.9219C621.465 92.9219 620.236 92.7275 619.209 92.3385C618.181 91.9569 617.355 91.4431 616.732 90.7973C616.108 90.1515 615.675 89.4359 615.433 88.6506L619.021 87.781C619.183 88.1112 619.418 88.4378 619.726 88.7607C620.034 89.091 620.449 89.3625 620.97 89.5754C621.498 89.7955 622.162 89.9056 622.962 89.9056C624.093 89.9056 625.028 89.6304 625.77 89.08C626.511 88.5369 626.881 87.6415 626.881 86.3939V83.1904H626.683C626.478 83.6014 626.177 84.0234 625.781 84.4564C625.392 84.8894 624.874 85.2527 624.228 85.5462C623.59 85.8398 622.786 85.9866 621.818 85.9866C620.519 85.9866 619.341 85.682 618.284 85.0729C617.234 84.4564 616.398 83.539 615.774 82.3207C615.157 81.0951 614.849 79.5613 614.849 77.7192C614.849 75.8624 615.157 74.2955 615.774 73.0185C616.398 71.7342 617.238 70.7618 618.295 70.1013C619.352 69.4334 620.53 69.0995 621.829 69.0995C622.819 69.0995 623.634 69.2683 624.272 69.6059C624.918 69.9361 625.432 70.3361 625.814 70.8058C626.195 71.2682 626.485 71.7048 626.683 72.1158H626.903V69.3197H630.834V86.504C630.834 87.9498 630.489 89.146 629.799 90.0928C629.109 91.0395 628.166 91.7477 626.97 92.2174C625.773 92.6871 624.416 92.9219 622.896 92.9219ZM622.929 82.8602C623.773 82.8602 624.493 82.6547 625.087 82.2437C625.682 81.8327 626.133 81.2419 626.441 80.4713C626.749 79.7007 626.903 78.776 626.903 77.6972C626.903 76.633 626.749 75.7009 626.441 74.901C626.14 74.101 625.693 73.4809 625.098 73.0405C624.511 72.5929 623.788 72.369 622.929 72.369C622.041 72.369 621.3 72.6002 620.706 73.0626C620.111 73.5249 619.664 74.1597 619.363 74.967C619.062 75.767 618.911 76.677 618.911 77.6972C618.911 78.732 619.062 79.6383 619.363 80.4163C619.671 81.1869 620.122 81.7887 620.717 82.2217C621.319 82.6473 622.056 82.8602 622.929 82.8602ZM648.282 73.7891L644.649 74.1854C644.546 73.8185 644.367 73.4736 644.11 73.1506C643.86 72.8277 643.523 72.5672 643.097 72.369C642.671 72.1709 642.15 72.0718 641.534 72.0718C640.705 72.0718 640.007 72.2516 639.442 72.6112C638.884 72.9708 638.609 73.4369 638.617 74.0093C638.609 74.501 638.789 74.901 639.156 75.2092C639.53 75.5175 640.147 75.7707 641.005 75.9688L643.89 76.5853C645.49 76.9302 646.678 77.477 647.456 78.2256C648.242 78.9741 648.638 79.9539 648.645 81.1648C648.638 82.229 648.326 83.1684 647.71 83.983C647.1 84.7903 646.253 85.4215 645.167 85.8765C644.08 86.3315 642.833 86.559 641.424 86.559C639.354 86.559 637.688 86.126 636.426 85.26C635.164 84.3867 634.411 83.1721 634.169 81.6162L638.055 81.2419C638.231 82.0052 638.606 82.5813 639.178 82.9702C639.75 83.3592 640.495 83.5537 641.413 83.5537C642.359 83.5537 643.119 83.3592 643.691 82.9702C644.271 82.5813 644.561 82.1006 644.561 81.5281C644.561 81.0437 644.374 80.6438 644 80.3282C643.633 80.0126 643.06 79.7704 642.282 79.6016L639.398 78.9962C637.776 78.6586 636.576 78.0898 635.798 77.2898C635.02 76.4825 634.635 75.4624 634.642 74.2295C634.635 73.1873 634.918 72.2846 635.49 71.5214C636.07 70.7508 636.874 70.1563 637.901 69.738C638.936 69.3123 640.128 69.0995 641.479 69.0995C643.46 69.0995 645.02 69.5215 646.157 70.3655C647.302 71.2095 648.011 72.3507 648.282 73.7891Z" fill="black"/>
<path opacity="0.5" d="M338.592 116.198H340.97V129.199C340.97 130.542 340.654 131.74 340.021 132.795C339.395 133.843 338.509 134.671 337.365 135.278C336.221 135.879 334.879 136.179 333.338 136.179C331.798 136.179 330.455 135.879 329.311 135.278C328.167 134.671 327.278 133.843 326.646 132.795C326.019 131.74 325.706 130.542 325.706 129.199V116.198H328.084V129.008C328.084 129.966 328.295 130.82 328.717 131.568C329.138 132.309 329.739 132.894 330.519 133.322C331.305 133.744 332.245 133.955 333.338 133.955C334.431 133.955 335.371 133.744 336.157 133.322C336.943 132.894 337.544 132.309 337.96 131.568C338.381 130.82 338.592 129.966 338.592 129.008V116.198ZM345.412 141.357V121.107H347.598V123.446H347.866C348.033 123.191 348.263 122.865 348.557 122.468C348.857 122.066 349.285 121.708 349.842 121.395C350.404 121.075 351.165 120.915 352.123 120.915C353.364 120.915 354.457 121.225 355.403 121.845C356.349 122.465 357.087 123.344 357.617 124.482C358.148 125.62 358.413 126.962 358.413 128.509C358.413 130.069 358.148 131.421 357.617 132.565C357.087 133.702 356.352 134.585 355.412 135.211C354.473 135.831 353.389 136.141 352.162 136.141C351.216 136.141 350.458 135.984 349.889 135.671C349.321 135.352 348.883 134.99 348.576 134.588C348.269 134.179 348.033 133.84 347.866 133.571H347.675V141.357H345.412ZM347.636 128.471C347.636 129.583 347.799 130.564 348.125 131.414C348.451 132.258 348.927 132.919 349.554 133.399C350.18 133.872 350.947 134.108 351.855 134.108C352.801 134.108 353.59 133.859 354.223 133.361C354.862 132.856 355.342 132.178 355.661 131.328C355.987 130.471 356.15 129.519 356.15 128.471C356.15 127.435 355.991 126.502 355.671 125.671C355.358 124.834 354.882 124.172 354.242 123.686C353.61 123.194 352.814 122.948 351.855 122.948C350.935 122.948 350.161 123.181 349.535 123.648C348.908 124.108 348.435 124.754 348.116 125.585C347.796 126.409 347.636 127.371 347.636 128.471ZM364.128 116.198V135.834H361.865V116.198H364.128ZM374.255 136.141C372.926 136.141 371.759 135.825 370.756 135.192C369.758 134.559 368.979 133.674 368.416 132.536C367.86 131.398 367.582 130.069 367.582 128.547C367.582 127.013 367.86 125.674 368.416 124.53C368.979 123.386 369.758 122.497 370.756 121.864C371.759 121.232 372.926 120.915 374.255 120.915C375.585 120.915 376.748 121.232 377.745 121.864C378.749 122.497 379.529 123.386 380.085 124.53C380.647 125.674 380.928 127.013 380.928 128.547C380.928 130.069 380.647 131.398 380.085 132.536C379.529 133.674 378.749 134.559 377.745 135.192C376.748 135.825 375.585 136.141 374.255 136.141ZM374.255 134.108C375.265 134.108 376.096 133.849 376.748 133.332C377.4 132.814 377.883 132.133 378.196 131.289C378.509 130.446 378.666 129.532 378.666 128.547C378.666 127.563 378.509 126.646 378.196 125.796C377.883 124.945 377.4 124.258 376.748 123.734C376.096 123.21 375.265 122.948 374.255 122.948C373.245 122.948 372.414 123.21 371.762 123.734C371.11 124.258 370.628 124.945 370.314 125.796C370.001 126.646 369.845 127.563 369.845 128.547C369.845 129.532 370.001 130.446 370.314 131.289C370.628 132.133 371.11 132.814 371.762 133.332C372.414 133.849 373.245 134.108 374.255 134.108ZM388.716 136.179C387.783 136.179 386.936 136.004 386.176 135.652C385.415 135.294 384.811 134.78 384.363 134.108C383.916 133.431 383.692 132.613 383.692 131.654C383.692 130.81 383.858 130.126 384.191 129.602C384.523 129.071 384.967 128.656 385.524 128.356C386.08 128.055 386.693 127.831 387.364 127.684C388.042 127.531 388.723 127.41 389.407 127.32C390.302 127.205 391.027 127.119 391.583 127.061C392.146 126.997 392.555 126.892 392.81 126.745C393.073 126.598 393.204 126.342 393.204 125.978V125.901C393.204 124.955 392.945 124.22 392.427 123.696C391.916 123.172 391.139 122.91 390.097 122.91C389.017 122.91 388.17 123.146 387.556 123.619C386.943 124.092 386.511 124.597 386.262 125.134L384.114 124.367C384.498 123.472 385.009 122.775 385.648 122.277C386.294 121.772 386.997 121.42 387.758 121.222C388.525 121.017 389.279 120.915 390.02 120.915C390.493 120.915 391.037 120.973 391.65 121.088C392.27 121.196 392.868 121.423 393.443 121.769C394.025 122.114 394.508 122.635 394.891 123.331C395.275 124.028 395.466 124.961 395.466 126.131V135.834H393.204V133.84H393.089C392.935 134.16 392.679 134.501 392.321 134.866C391.964 135.23 391.487 135.54 390.893 135.796C390.298 136.052 389.573 136.179 388.716 136.179ZM389.062 134.147C389.956 134.147 390.711 133.971 391.324 133.619C391.944 133.268 392.411 132.814 392.724 132.258C393.044 131.702 393.204 131.117 393.204 130.503V128.432C393.108 128.547 392.897 128.653 392.571 128.749C392.251 128.838 391.88 128.918 391.459 128.988C391.043 129.052 390.637 129.11 390.241 129.161C389.851 129.206 389.535 129.244 389.292 129.276C388.704 129.353 388.154 129.477 387.642 129.65C387.138 129.816 386.728 130.069 386.415 130.407C386.108 130.74 385.955 131.194 385.955 131.769C385.955 132.555 386.246 133.15 386.828 133.552C387.416 133.949 388.16 134.147 389.062 134.147ZM405.157 136.141C403.93 136.141 402.847 135.831 401.907 135.211C400.968 134.585 400.232 133.702 399.702 132.565C399.171 131.421 398.906 130.069 398.906 128.509C398.906 126.962 399.171 125.62 399.702 124.482C400.232 123.344 400.971 122.465 401.917 121.845C402.863 121.225 403.956 120.915 405.196 120.915C406.155 120.915 406.912 121.075 407.468 121.395C408.031 121.708 408.459 122.066 408.753 122.468C409.053 122.865 409.287 123.191 409.453 123.446H409.645V116.198H411.907V135.834H409.721V133.571H409.453C409.287 133.84 409.05 134.179 408.743 134.588C408.437 134.99 407.999 135.352 407.43 135.671C406.861 135.984 406.104 136.141 405.157 136.141ZM405.464 134.108C406.372 134.108 407.139 133.872 407.765 133.399C408.392 132.919 408.868 132.258 409.194 131.414C409.52 130.564 409.683 129.583 409.683 128.471C409.683 127.371 409.523 126.409 409.204 125.585C408.884 124.754 408.411 124.108 407.785 123.648C407.158 123.181 406.385 122.948 405.464 122.948C404.506 122.948 403.706 123.194 403.067 123.686C402.434 124.172 401.958 124.834 401.639 125.671C401.325 126.502 401.169 127.435 401.169 128.471C401.169 129.519 401.329 130.471 401.648 131.328C401.974 132.178 402.454 132.856 403.086 133.361C403.726 133.859 404.518 134.108 405.464 134.108ZM428.294 136.179C427.36 136.179 426.513 136.004 425.753 135.652C424.992 135.294 424.388 134.78 423.941 134.108C423.493 133.431 423.269 132.613 423.269 131.654C423.269 130.81 423.436 130.126 423.768 129.602C424.1 129.071 424.545 128.656 425.101 128.356C425.657 128.055 426.27 127.831 426.942 127.684C427.619 127.531 428.3 127.41 428.984 127.32C429.879 127.205 430.604 127.119 431.16 127.061C431.723 126.997 432.132 126.892 432.388 126.745C432.65 126.598 432.781 126.342 432.781 125.978V125.901C432.781 124.955 432.522 124.22 432.004 123.696C431.493 123.172 430.716 122.91 429.674 122.91C428.594 122.91 427.747 123.146 427.133 123.619C426.52 124.092 426.088 124.597 425.839 125.134L423.691 124.367C424.075 123.472 424.586 122.775 425.225 122.277C425.871 121.772 426.574 121.42 427.335 121.222C428.102 121.017 428.856 120.915 429.597 120.915C430.07 120.915 430.614 120.973 431.227 121.088C431.847 121.196 432.445 121.423 433.02 121.769C433.602 122.114 434.085 122.635 434.468 123.331C434.852 124.028 435.044 124.961 435.044 126.131V135.834H432.781V133.84H432.666C432.512 134.16 432.257 134.501 431.899 134.866C431.541 135.23 431.064 135.54 430.47 135.796C429.876 136.052 429.15 136.179 428.294 136.179ZM428.639 134.147C429.534 134.147 430.288 133.971 430.901 133.619C431.521 133.268 431.988 132.814 432.301 132.258C432.621 131.702 432.781 131.117 432.781 130.503V128.432C432.685 128.547 432.474 128.653 432.148 128.749C431.828 128.838 431.458 128.918 431.036 128.988C430.62 129.052 430.214 129.11 429.818 129.161C429.428 129.206 429.112 129.244 428.869 129.276C428.281 129.353 427.731 129.477 427.22 129.65C426.715 129.816 426.306 130.069 425.992 130.407C425.686 130.74 425.532 131.194 425.532 131.769C425.532 132.555 425.823 133.15 426.405 133.552C426.993 133.949 427.737 134.147 428.639 134.147ZM441.436 116.198V135.834H439.174V116.198H441.436ZM447.844 116.198V135.834H445.581V116.198H447.844ZM465.143 136.141C463.916 136.141 462.832 135.831 461.892 135.211C460.953 134.585 460.218 133.702 459.687 132.565C459.157 131.421 458.891 130.069 458.891 128.509C458.891 126.962 459.157 125.62 459.687 124.482C460.218 123.344 460.956 122.465 461.902 121.845C462.848 121.225 463.941 120.915 465.181 120.915C466.14 120.915 466.897 121.075 467.454 121.395C468.016 121.708 468.444 122.066 468.738 122.468C469.039 122.865 469.272 123.191 469.438 123.446H469.63V116.198H471.893V135.834H469.707V133.571H469.438C469.272 133.84 469.036 134.179 468.729 134.588C468.422 134.99 467.984 135.352 467.415 135.671C466.846 135.984 466.089 136.141 465.143 136.141ZM465.45 134.108C466.357 134.108 467.124 133.872 467.751 133.399C468.377 132.919 468.853 132.258 469.179 131.414C469.505 130.564 469.668 129.583 469.668 128.471C469.668 127.371 469.509 126.409 469.189 125.585C468.869 124.754 468.396 124.108 467.77 123.648C467.144 123.181 466.37 122.948 465.45 122.948C464.491 122.948 463.692 123.194 463.053 123.686C462.42 124.172 461.944 124.834 461.624 125.671C461.311 126.502 461.154 127.435 461.154 128.471C461.154 129.519 461.314 130.471 461.634 131.328C461.96 132.178 462.439 132.856 463.072 133.361C463.711 133.859 464.504 134.108 465.45 134.108ZM482.334 136.141C481.005 136.141 479.838 135.825 478.835 135.192C477.837 134.559 477.058 133.674 476.495 132.536C475.939 131.398 475.661 130.069 475.661 128.547C475.661 127.013 475.939 125.674 476.495 124.53C477.058 123.386 477.837 122.497 478.835 121.864C479.838 121.232 481.005 120.915 482.334 120.915C483.664 120.915 484.827 121.232 485.824 121.864C486.828 122.497 487.608 123.386 488.164 124.53C488.726 125.674 489.008 127.013 489.008 128.547C489.008 130.069 488.726 131.398 488.164 132.536C487.608 133.674 486.828 134.559 485.824 135.192C484.827 135.825 483.664 136.141 482.334 136.141ZM482.334 134.108C483.344 134.108 484.175 133.849 484.827 133.332C485.479 132.814 485.962 132.133 486.275 131.289C486.588 130.446 486.745 129.532 486.745 128.547C486.745 127.563 486.588 126.646 486.275 125.796C485.962 124.945 485.479 124.258 484.827 123.734C484.175 123.21 483.344 122.948 482.334 122.948C481.324 122.948 480.493 123.21 479.841 123.734C479.189 124.258 478.707 124.945 478.394 125.796C478.08 126.646 477.924 127.563 477.924 128.547C477.924 129.532 478.08 130.446 478.394 131.289C478.707 132.133 479.189 132.814 479.841 133.332C480.493 133.849 481.324 134.108 482.334 134.108ZM498.445 136.141C497.064 136.141 495.875 135.815 494.878 135.163C493.881 134.511 493.114 133.613 492.577 132.469C492.04 131.325 491.771 130.017 491.771 128.547C491.771 127.052 492.046 125.732 492.596 124.587C493.152 123.437 493.925 122.539 494.916 121.893C495.913 121.241 497.077 120.915 498.406 120.915C499.442 120.915 500.375 121.107 501.206 121.49C502.037 121.874 502.718 122.411 503.248 123.101C503.779 123.792 504.108 124.597 504.236 125.517H501.973C501.8 124.846 501.417 124.252 500.822 123.734C500.234 123.21 499.442 122.948 498.445 122.948C497.563 122.948 496.789 123.178 496.124 123.638C495.466 124.092 494.951 124.734 494.581 125.565C494.216 126.39 494.034 127.358 494.034 128.471C494.034 129.608 494.213 130.599 494.571 131.443C494.935 132.287 495.447 132.942 496.105 133.408C496.77 133.875 497.55 134.108 498.445 134.108C499.033 134.108 499.566 134.006 500.046 133.802C500.525 133.597 500.931 133.303 501.263 132.919C501.596 132.536 501.832 132.076 501.973 131.539H504.236C504.108 132.408 503.792 133.191 503.287 133.888C502.788 134.578 502.126 135.128 501.302 135.537C500.484 135.94 499.531 136.141 498.445 136.141ZM516.825 129.813V121.107H519.088V135.834H516.825V133.341H516.672C516.326 134.089 515.789 134.725 515.061 135.249C514.332 135.767 513.412 136.026 512.299 136.026C511.379 136.026 510.561 135.825 509.845 135.422C509.129 135.013 508.566 134.399 508.157 133.581C507.748 132.756 507.544 131.718 507.544 130.465V121.107H509.806V130.312C509.806 131.385 510.107 132.242 510.708 132.881C511.315 133.52 512.088 133.84 513.028 133.84C513.591 133.84 514.163 133.696 514.744 133.408C515.332 133.121 515.825 132.68 516.221 132.085C516.624 131.491 516.825 130.733 516.825 129.813ZM523.232 135.834V121.107H525.418V123.408H525.61C525.917 122.622 526.412 122.011 527.096 121.577C527.78 121.136 528.601 120.915 529.56 120.915C530.532 120.915 531.34 121.136 531.986 121.577C532.638 122.011 533.146 122.622 533.511 123.408H533.664C534.041 122.647 534.607 122.043 535.361 121.596C536.115 121.142 537.02 120.915 538.074 120.915C539.391 120.915 540.468 121.327 541.306 122.152C542.143 122.97 542.562 124.245 542.562 125.978V135.834H540.299V125.978C540.299 124.891 540.002 124.114 539.407 123.648C538.813 123.181 538.113 122.948 537.307 122.948C536.272 122.948 535.47 123.261 534.901 123.887C534.332 124.508 534.047 125.294 534.047 126.246V135.834H531.746V125.748C531.746 124.91 531.475 124.236 530.931 123.724C530.388 123.207 529.688 122.948 528.832 122.948C528.244 122.948 527.694 123.104 527.182 123.418C526.677 123.731 526.268 124.166 525.955 124.722C525.648 125.271 525.495 125.907 525.495 126.63V135.834H523.232ZM552.874 136.141C551.455 136.141 550.231 135.828 549.201 135.201C548.179 134.569 547.389 133.687 546.833 132.555C546.283 131.417 546.009 130.094 546.009 128.586C546.009 127.077 546.283 125.748 546.833 124.597C547.389 123.44 548.163 122.539 549.153 121.893C550.151 121.241 551.314 120.915 552.644 120.915C553.411 120.915 554.168 121.043 554.916 121.299C555.664 121.554 556.345 121.97 556.958 122.545C557.572 123.114 558.061 123.868 558.425 124.808C558.79 125.748 558.972 126.905 558.972 128.279V129.238H547.619V127.282H556.671C556.671 126.451 556.504 125.709 556.172 125.057C555.846 124.405 555.379 123.891 554.772 123.514C554.171 123.136 553.462 122.948 552.644 122.948C551.742 122.948 550.962 123.172 550.304 123.619C549.652 124.06 549.15 124.635 548.799 125.345C548.447 126.054 548.271 126.815 548.271 127.627V128.931C548.271 130.043 548.463 130.986 548.847 131.759C549.237 132.526 549.777 133.111 550.467 133.514C551.157 133.91 551.96 134.108 552.874 134.108C553.468 134.108 554.005 134.025 554.484 133.859C554.97 133.687 555.389 133.431 555.741 133.092C556.092 132.747 556.364 132.319 556.555 131.807L558.742 132.421C558.511 133.162 558.125 133.814 557.581 134.377C557.038 134.933 556.367 135.368 555.568 135.681C554.769 135.988 553.871 136.141 552.874 136.141ZM564.677 126.975V135.834H562.414V121.107H564.6V123.408H564.792C565.137 122.66 565.661 122.059 566.364 121.606C567.067 121.145 567.975 120.915 569.087 120.915C570.084 120.915 570.957 121.12 571.705 121.529C572.453 121.932 573.034 122.545 573.45 123.37C573.865 124.188 574.073 125.223 574.073 126.476V135.834H571.81V126.63C571.81 125.473 571.51 124.571 570.909 123.926C570.308 123.274 569.483 122.948 568.435 122.948C567.713 122.948 567.067 123.104 566.498 123.418C565.936 123.731 565.492 124.188 565.166 124.789C564.84 125.39 564.677 126.118 564.677 126.975ZM584.613 121.107V123.025H576.98V121.107H584.613ZM579.205 117.579H581.468V131.615C581.468 132.255 581.56 132.734 581.746 133.054C581.938 133.367 582.18 133.578 582.474 133.687C582.775 133.789 583.091 133.84 583.424 133.84C583.673 133.84 583.877 133.827 584.037 133.802C584.197 133.77 584.325 133.744 584.421 133.725L584.881 135.758C584.728 135.815 584.513 135.873 584.239 135.93C583.964 135.994 583.615 136.026 583.194 136.026C582.554 136.026 581.928 135.889 581.314 135.614C580.707 135.339 580.202 134.92 579.799 134.358C579.403 133.795 579.205 133.086 579.205 132.229V117.579ZM598.184 124.405L596.152 124.981C596.024 124.642 595.835 124.313 595.586 123.993C595.343 123.667 595.011 123.399 594.589 123.188C594.167 122.977 593.627 122.871 592.969 122.871C592.067 122.871 591.316 123.079 590.715 123.494C590.121 123.903 589.824 124.424 589.824 125.057C589.824 125.62 590.028 126.064 590.437 126.39C590.846 126.716 591.486 126.988 592.355 127.205L594.541 127.742C595.858 128.062 596.839 128.55 597.485 129.209C598.13 129.861 598.453 130.701 598.453 131.731C598.453 132.574 598.21 133.329 597.724 133.993C597.245 134.658 596.574 135.182 595.711 135.566C594.848 135.949 593.844 136.141 592.7 136.141C591.198 136.141 589.955 135.815 588.97 135.163C587.986 134.511 587.363 133.559 587.101 132.306L589.248 131.769C589.453 132.562 589.84 133.156 590.409 133.552C590.984 133.949 591.735 134.147 592.662 134.147C593.716 134.147 594.554 133.923 595.174 133.476C595.8 133.022 596.113 132.478 596.113 131.846C596.113 131.334 595.934 130.906 595.577 130.561C595.219 130.209 594.669 129.947 593.927 129.775L591.473 129.199C590.124 128.88 589.133 128.384 588.501 127.713C587.874 127.036 587.561 126.189 587.561 125.172C587.561 124.341 587.794 123.606 588.261 122.967C588.734 122.328 589.376 121.826 590.188 121.462C591.006 121.097 591.933 120.915 592.969 120.915C594.426 120.915 595.57 121.235 596.401 121.874C597.238 122.513 597.833 123.357 598.184 124.405ZM325.399 168.834V154.107H327.585V156.331H327.739C328.007 155.603 328.493 155.011 329.196 154.558C329.899 154.104 330.692 153.877 331.574 153.877C331.74 153.877 331.948 153.88 332.197 153.886C332.446 153.893 332.635 153.902 332.763 153.915V156.216C332.686 156.197 332.51 156.168 332.235 156.13C331.967 156.085 331.683 156.063 331.382 156.063C330.666 156.063 330.027 156.213 329.464 156.514C328.908 156.808 328.467 157.217 328.141 157.741C327.822 158.259 327.662 158.85 327.662 159.515V168.834H325.399ZM341.172 169.141C339.752 169.141 338.528 168.828 337.499 168.201C336.477 167.569 335.687 166.687 335.131 165.555C334.581 164.417 334.306 163.094 334.306 161.586C334.306 160.077 334.581 158.748 335.131 157.597C335.687 156.44 336.461 155.539 337.451 154.893C338.449 154.241 339.612 153.915 340.941 153.915C341.708 153.915 342.466 154.043 343.214 154.299C343.962 154.554 344.642 154.97 345.256 155.545C345.87 156.114 346.359 156.868 346.723 157.808C347.087 158.748 347.27 159.905 347.27 161.279V162.238H335.917V160.282H344.968C344.968 159.451 344.802 158.709 344.47 158.057C344.144 157.405 343.677 156.891 343.07 156.514C342.469 156.136 341.76 155.948 340.941 155.948C340.04 155.948 339.26 156.172 338.602 156.619C337.95 157.06 337.448 157.635 337.097 158.345C336.745 159.054 336.569 159.815 336.569 160.627V161.931C336.569 163.043 336.761 163.986 337.145 164.759C337.534 165.526 338.075 166.111 338.765 166.514C339.455 166.91 340.257 167.108 341.172 167.108C341.766 167.108 342.303 167.025 342.782 166.859C343.268 166.687 343.687 166.431 344.038 166.092C344.39 165.747 344.662 165.319 344.853 164.807L347.039 165.421C346.809 166.162 346.423 166.814 345.879 167.377C345.336 167.933 344.665 168.368 343.866 168.681C343.067 168.988 342.169 169.141 341.172 169.141ZM360.76 174.357V166.571H360.568C360.402 166.84 360.165 167.179 359.859 167.588C359.552 167.99 359.114 168.352 358.545 168.671C357.976 168.984 357.219 169.141 356.273 169.141C355.045 169.141 353.962 168.831 353.022 168.211C352.083 167.585 351.348 166.702 350.817 165.565C350.287 164.421 350.021 163.069 350.021 161.509C350.021 159.962 350.287 158.62 350.817 157.482C351.348 156.344 352.086 155.465 353.032 154.845C353.978 154.225 355.071 153.915 356.311 153.915C357.27 153.915 358.027 154.075 358.583 154.395C359.146 154.708 359.574 155.066 359.868 155.468C360.169 155.865 360.402 156.191 360.568 156.446H360.837V154.107H363.023V174.357H360.76ZM356.58 167.108C357.487 167.108 358.254 166.872 358.881 166.399C359.507 165.919 359.983 165.258 360.309 164.414C360.635 163.564 360.798 162.583 360.798 161.471C360.798 160.371 360.638 159.409 360.319 158.585C359.999 157.754 359.526 157.108 358.9 156.648C358.273 156.181 357.5 155.948 356.58 155.948C355.621 155.948 354.822 156.194 354.183 156.686C353.55 157.172 353.074 157.834 352.754 158.671C352.441 159.502 352.284 160.435 352.284 161.471C352.284 162.519 352.444 163.471 352.763 164.328C353.089 165.178 353.569 165.856 354.202 166.361C354.841 166.859 355.634 167.108 356.58 167.108ZM376.446 162.813V154.107H378.709V168.834H376.446V166.341H376.293C375.947 167.089 375.411 167.725 374.682 168.249C373.953 168.767 373.033 169.026 371.92 169.026C371 169.026 370.182 168.825 369.466 168.422C368.75 168.013 368.188 167.399 367.778 166.581C367.369 165.756 367.165 164.718 367.165 163.465V154.107H369.428V163.312C369.428 164.385 369.728 165.242 370.329 165.881C370.936 166.52 371.71 166.84 372.649 166.84C373.212 166.84 373.784 166.696 374.365 166.408C374.953 166.121 375.446 165.68 375.842 165.085C376.245 164.491 376.446 163.733 376.446 162.813ZM382.853 168.834V154.107H385.116V168.834H382.853ZM384.004 151.652C383.563 151.652 383.182 151.502 382.863 151.202C382.55 150.901 382.393 150.54 382.393 150.118C382.393 149.696 382.55 149.335 382.863 149.035C383.182 148.734 383.563 148.584 384.004 148.584C384.445 148.584 384.822 148.734 385.135 149.035C385.455 149.335 385.615 149.696 385.615 150.118C385.615 150.54 385.455 150.901 385.135 151.202C384.822 151.502 384.445 151.652 384.004 151.652ZM389.26 168.834V154.107H391.447V156.331H391.6C391.868 155.603 392.354 155.011 393.057 154.558C393.76 154.104 394.553 153.877 395.435 153.877C395.601 153.877 395.809 153.88 396.058 153.886C396.308 153.893 396.496 153.902 396.624 153.915V156.216C396.547 156.197 396.372 156.168 396.097 156.13C395.828 156.085 395.544 156.063 395.243 156.063C394.528 156.063 393.888 156.213 393.326 156.514C392.77 156.808 392.329 157.217 392.003 157.741C391.683 158.259 391.523 158.85 391.523 159.515V168.834H389.26ZM405.033 169.141C403.614 169.141 402.39 168.828 401.361 168.201C400.338 167.569 399.548 166.687 398.992 165.555C398.443 164.417 398.168 163.094 398.168 161.586C398.168 160.077 398.443 158.748 398.992 157.597C399.548 156.44 400.322 155.539 401.313 154.893C402.31 154.241 403.473 153.915 404.803 153.915C405.57 153.915 406.327 154.043 407.075 154.299C407.823 154.554 408.504 154.97 409.117 155.545C409.731 156.114 410.22 156.868 410.584 157.808C410.949 158.748 411.131 159.905 411.131 161.279V162.238H399.779V160.282H408.83C408.83 159.451 408.664 158.709 408.331 158.057C408.005 157.405 407.539 156.891 406.931 156.514C406.33 156.136 405.621 155.948 404.803 155.948C403.901 155.948 403.122 156.172 402.463 156.619C401.811 157.06 401.309 157.635 400.958 158.345C400.606 159.054 400.431 159.815 400.431 160.627V161.931C400.431 163.043 400.622 163.986 401.006 164.759C401.396 165.526 401.936 166.111 402.626 166.514C403.317 166.91 404.119 167.108 405.033 167.108C405.627 167.108 406.164 167.025 406.644 166.859C407.129 166.687 407.548 166.431 407.9 166.092C408.251 165.747 408.523 165.319 408.715 164.807L410.901 165.421C410.671 166.162 410.284 166.814 409.741 167.377C409.197 167.933 408.526 168.368 407.727 168.681C406.928 168.988 406.03 169.141 405.033 169.141ZM420.134 169.141C418.907 169.141 417.823 168.831 416.884 168.211C415.944 167.585 415.209 166.702 414.678 165.565C414.148 164.421 413.883 163.069 413.883 161.509C413.883 159.962 414.148 158.62 414.678 157.482C415.209 156.344 415.947 155.465 416.893 154.845C417.839 154.225 418.932 153.915 420.172 153.915C421.131 153.915 421.889 154.075 422.445 154.395C423.007 154.708 423.436 155.066 423.73 155.468C424.03 155.865 424.263 156.191 424.43 156.446H424.621V149.198H426.884V168.834H424.698V166.571H424.43C424.263 166.84 424.027 167.179 423.72 167.588C423.413 167.99 422.975 168.352 422.406 168.671C421.838 168.984 421.08 169.141 420.134 169.141ZM420.441 167.108C421.349 167.108 422.116 166.872 422.742 166.399C423.368 165.919 423.845 165.258 424.171 164.414C424.497 163.564 424.66 162.583 424.66 161.471C424.66 160.371 424.5 159.409 424.18 158.585C423.861 157.754 423.388 157.108 422.761 156.648C422.135 156.181 421.361 155.948 420.441 155.948C419.482 155.948 418.683 156.194 418.044 156.686C417.411 157.172 416.935 157.834 416.615 158.671C416.302 159.502 416.145 160.435 416.145 161.471C416.145 162.519 416.305 163.471 416.625 164.328C416.951 165.178 417.43 165.856 418.063 166.361C418.702 166.859 419.495 167.108 420.441 167.108ZM445.494 154.107V156.025H437.556V154.107H445.494ZM439.933 168.834V152.074C439.933 151.231 440.132 150.527 440.528 149.965C440.924 149.402 441.439 148.981 442.072 148.699C442.704 148.418 443.372 148.277 444.075 148.277C444.632 148.277 445.085 148.322 445.437 148.412C445.789 148.501 446.051 148.584 446.223 148.661L445.571 150.617C445.456 150.579 445.296 150.531 445.092 150.473C444.894 150.416 444.632 150.387 444.306 150.387C443.558 150.387 443.018 150.575 442.685 150.952C442.359 151.33 442.196 151.883 442.196 152.611V168.834H439.933ZM454.042 169.141C452.713 169.141 451.546 168.825 450.543 168.192C449.545 167.559 448.766 166.674 448.203 165.536C447.647 164.398 447.369 163.069 447.369 161.547C447.369 160.013 447.647 158.674 448.203 157.53C448.766 156.386 449.545 155.497 450.543 154.864C451.546 154.232 452.713 153.915 454.042 153.915C455.372 153.915 456.535 154.232 457.532 154.864C458.536 155.497 459.316 156.386 459.872 157.53C460.434 158.674 460.716 160.013 460.716 161.547C460.716 163.069 460.434 164.398 459.872 165.536C459.316 166.674 458.536 167.559 457.532 168.192C456.535 168.825 455.372 169.141 454.042 169.141ZM454.042 167.108C455.052 167.108 455.883 166.849 456.535 166.332C457.187 165.814 457.67 165.133 457.983 164.289C458.296 163.446 458.453 162.532 458.453 161.547C458.453 160.563 458.296 159.646 457.983 158.796C457.67 157.945 457.187 157.258 456.535 156.734C455.883 156.21 455.052 155.948 454.042 155.948C453.032 155.948 452.201 156.21 451.549 156.734C450.897 157.258 450.415 157.945 450.102 158.796C449.788 159.646 449.632 160.563 449.632 161.547C449.632 162.532 449.788 163.446 450.102 164.289C450.415 165.133 450.897 165.814 451.549 166.332C452.201 166.849 453.032 167.108 454.042 167.108ZM464.17 168.834V154.107H466.356V156.331H466.509C466.778 155.603 467.263 155.011 467.967 154.558C468.67 154.104 469.462 153.877 470.344 153.877C470.511 153.877 470.718 153.88 470.968 153.886C471.217 153.893 471.405 153.902 471.533 153.915V156.216C471.457 156.197 471.281 156.168 471.006 156.13C470.737 156.085 470.453 156.063 470.153 156.063C469.437 156.063 468.797 156.213 468.235 156.514C467.679 156.808 467.238 157.217 466.912 157.741C466.592 158.259 466.432 158.85 466.432 159.515V168.834H464.17ZM483.267 174.357C482.883 174.357 482.541 174.325 482.241 174.261C481.94 174.204 481.733 174.146 481.618 174.088L482.193 172.094C482.743 172.235 483.228 172.286 483.65 172.248C484.072 172.209 484.446 172.021 484.772 171.682C485.104 171.349 485.408 170.809 485.683 170.062L486.105 168.911L480.659 154.107H483.113L487.179 165.843H487.332L491.397 154.107H493.852L487.6 170.982C487.319 171.743 486.971 172.372 486.555 172.871C486.14 173.376 485.657 173.75 485.108 173.993C484.564 174.236 483.951 174.357 483.267 174.357ZM502.294 169.141C500.965 169.141 499.798 168.825 498.795 168.192C497.797 167.559 497.018 166.674 496.455 165.536C495.899 164.398 495.621 163.069 495.621 161.547C495.621 160.013 495.899 158.674 496.455 157.53C497.018 156.386 497.797 155.497 498.795 154.864C499.798 154.232 500.965 153.915 502.294 153.915C503.624 153.915 504.787 154.232 505.784 154.864C506.788 155.497 507.568 156.386 508.124 157.53C508.686 158.674 508.968 160.013 508.968 161.547C508.968 163.069 508.686 164.398 508.124 165.536C507.568 166.674 506.788 167.559 505.784 168.192C504.787 168.825 503.624 169.141 502.294 169.141ZM502.294 167.108C503.304 167.108 504.135 166.849 504.787 166.332C505.439 165.814 505.922 165.133 506.235 164.289C506.548 163.446 506.705 162.532 506.705 161.547C506.705 160.563 506.548 159.646 506.235 158.796C505.922 157.945 505.439 157.258 504.787 156.734C504.135 156.21 503.304 155.948 502.294 155.948C501.284 155.948 500.453 156.21 499.801 156.734C499.149 157.258 498.667 157.945 498.354 158.796C498.04 159.646 497.884 160.563 497.884 161.547C497.884 162.532 498.04 163.446 498.354 164.289C498.667 165.133 499.149 165.814 499.801 166.332C500.453 166.849 501.284 167.108 502.294 167.108ZM521.703 162.813V154.107H523.966V168.834H521.703V166.341H521.549C521.204 167.089 520.667 167.725 519.939 168.249C519.21 168.767 518.29 169.026 517.177 169.026C516.257 169.026 515.439 168.825 514.723 168.422C514.007 168.013 513.444 167.399 513.035 166.581C512.626 165.756 512.422 164.718 512.422 163.465V154.107H514.684V163.312C514.684 164.385 514.985 165.242 515.586 165.881C516.193 166.52 516.966 166.84 517.906 166.84C518.468 166.84 519.041 166.696 519.622 166.408C520.21 166.121 520.703 165.68 521.099 165.085C521.502 164.491 521.703 163.733 521.703 162.813ZM528.11 168.834V154.107H530.296V156.331H530.45C530.718 155.603 531.204 155.011 531.907 154.558C532.61 154.104 533.403 153.877 534.285 153.877C534.451 153.877 534.659 153.88 534.908 153.886C535.157 153.893 535.346 153.902 535.474 153.915V156.216C535.397 156.197 535.221 156.168 534.946 156.13C534.678 156.085 534.393 156.063 534.093 156.063C533.377 156.063 532.738 156.213 532.175 156.514C531.619 156.808 531.178 157.217 530.852 157.741C530.533 158.259 530.373 158.85 530.373 159.515V168.834H528.11ZM545.75 168.834V154.107H548.013V168.834H545.75ZM546.9 151.652C546.459 151.652 546.079 151.502 545.759 151.202C545.446 150.901 545.29 150.54 545.29 150.118C545.29 149.696 545.446 149.335 545.759 149.035C546.079 148.734 546.459 148.584 546.9 148.584C547.341 148.584 547.718 148.734 548.032 149.035C548.351 149.335 548.511 149.696 548.511 150.118C548.511 150.54 548.351 150.901 548.032 151.202C547.718 151.502 547.341 151.652 546.9 151.652ZM554.42 159.975V168.834H552.157V154.107H554.343V156.408H554.535C554.88 155.66 555.404 155.059 556.107 154.606C556.81 154.145 557.718 153.915 558.83 153.915C559.827 153.915 560.7 154.12 561.448 154.529C562.196 154.932 562.777 155.545 563.193 156.37C563.608 157.188 563.816 158.223 563.816 159.476V168.834H561.553V159.63C561.553 158.473 561.253 157.571 560.652 156.926C560.051 156.274 559.227 155.948 558.178 155.948C557.456 155.948 556.81 156.104 556.241 156.418C555.679 156.731 555.235 157.188 554.909 157.789C554.583 158.39 554.42 159.118 554.42 159.975ZM573.512 169.141C572.285 169.141 571.201 168.831 570.262 168.211C569.322 167.585 568.587 166.702 568.056 165.565C567.526 164.421 567.261 163.069 567.261 161.509C567.261 159.962 567.526 158.62 568.056 157.482C568.587 156.344 569.325 155.465 570.271 154.845C571.217 154.225 572.31 153.915 573.55 153.915C574.509 153.915 575.267 154.075 575.823 154.395C576.385 154.708 576.813 155.066 577.108 155.468C577.408 155.865 577.641 156.191 577.807 156.446H577.999V149.198H580.262V168.834H578.076V166.571H577.807C577.641 166.84 577.405 167.179 577.098 167.588C576.791 167.99 576.353 168.352 575.784 168.671C575.215 168.984 574.458 169.141 573.512 169.141ZM573.819 167.108C574.726 167.108 575.494 166.872 576.12 166.399C576.746 165.919 577.223 165.258 577.549 164.414C577.875 163.564 578.038 162.583 578.038 161.471C578.038 160.371 577.878 159.409 577.558 158.585C577.239 157.754 576.766 157.108 576.139 156.648C575.513 156.181 574.739 155.948 573.819 155.948C572.86 155.948 572.061 156.194 571.422 156.686C570.789 157.172 570.313 157.834 569.993 158.671C569.68 159.502 569.523 160.435 569.523 161.471C569.523 162.519 569.683 163.471 570.003 164.328C570.329 165.178 570.808 165.856 571.441 166.361C572.08 166.859 572.873 167.108 573.819 167.108ZM584.72 168.834V154.107H586.983V168.834H584.72ZM585.871 151.652C585.43 151.652 585.05 151.502 584.73 151.202C584.417 150.901 584.26 150.54 584.26 150.118C584.26 149.696 584.417 149.335 584.73 149.035C585.05 148.734 585.43 148.584 585.871 148.584C586.312 148.584 586.689 148.734 587.002 149.035C587.322 149.335 587.482 149.696 587.482 150.118C587.482 150.54 587.322 150.901 587.002 151.202C586.689 151.502 586.312 151.652 585.871 151.652ZM603.17 154.107L597.724 168.834H595.423L589.977 154.107H592.432L596.497 165.843H596.65L600.716 154.107H603.17ZM606.157 168.834V154.107H608.42V168.834H606.157ZM607.308 151.652C606.866 151.652 606.486 151.502 606.167 151.202C605.853 150.901 605.697 150.54 605.697 150.118C605.697 149.696 605.853 149.335 606.167 149.035C606.486 148.734 606.866 148.584 607.308 148.584C607.749 148.584 608.126 148.734 608.439 149.035C608.759 149.335 608.918 149.696 608.918 150.118C608.918 150.54 608.759 150.901 608.439 151.202C608.126 151.502 607.749 151.652 607.308 151.652ZM618.125 169.141C616.898 169.141 615.815 168.831 614.875 168.211C613.935 167.585 613.2 166.702 612.67 165.565C612.139 164.421 611.874 163.069 611.874 161.509C611.874 159.962 612.139 158.62 612.67 157.482C613.2 156.344 613.938 155.465 614.884 154.845C615.831 154.225 616.924 153.915 618.164 153.915C619.122 153.915 619.88 154.075 620.436 154.395C620.998 154.708 621.427 155.066 621.721 155.468C622.021 155.865 622.255 156.191 622.421 156.446H622.612V149.198H624.875V168.834H622.689V166.571H622.421C622.255 166.84 622.018 167.179 621.711 167.588C621.404 167.99 620.967 168.352 620.398 168.671C619.829 168.984 619.071 169.141 618.125 169.141ZM618.432 167.108C619.34 167.108 620.107 166.872 620.733 166.399C621.36 165.919 621.836 165.258 622.162 164.414C622.488 163.564 622.651 162.583 622.651 161.471C622.651 160.371 622.491 159.409 622.171 158.585C621.852 157.754 621.379 157.108 620.752 156.648C620.126 156.181 619.353 155.948 618.432 155.948C617.473 155.948 616.674 156.194 616.035 156.686C615.402 157.172 614.926 157.834 614.606 158.671C614.293 159.502 614.137 160.435 614.137 161.471C614.137 162.519 614.296 163.471 614.616 164.328C614.942 165.178 615.421 165.856 616.054 166.361C616.693 166.859 617.486 167.108 618.432 167.108ZM638.615 162.813V154.107H640.878V168.834H638.615V166.341H638.462C638.116 167.089 637.579 167.725 636.851 168.249C636.122 168.767 635.202 169.026 634.089 169.026C633.169 169.026 632.351 168.825 631.635 168.422C630.919 168.013 630.356 167.399 629.947 166.581C629.538 165.756 629.334 164.718 629.334 163.465V154.107H631.597V163.312C631.597 164.385 631.897 165.242 632.498 165.881C633.105 166.52 633.878 166.84 634.818 166.84C635.381 166.84 635.953 166.696 636.534 166.408C637.122 166.121 637.615 165.68 638.011 165.085C638.414 164.491 638.615 163.733 638.615 162.813ZM649.356 169.179C648.423 169.179 647.576 169.004 646.815 168.652C646.055 168.294 645.45 167.78 645.003 167.108C644.556 166.431 644.332 165.613 644.332 164.654C644.332 163.81 644.498 163.126 644.83 162.602C645.163 162.071 645.607 161.656 646.163 161.356C646.719 161.055 647.333 160.831 648.004 160.684C648.682 160.531 649.362 160.41 650.046 160.32C650.941 160.205 651.667 160.119 652.223 160.061C652.785 159.997 653.194 159.892 653.45 159.745C653.712 159.598 653.843 159.342 653.843 158.978V158.901C653.843 157.955 653.584 157.22 653.067 156.696C652.555 156.172 651.779 155.91 650.737 155.91C649.656 155.91 648.809 156.146 648.196 156.619C647.582 157.092 647.151 157.597 646.901 158.134L644.754 157.367C645.137 156.472 645.649 155.775 646.288 155.277C646.933 154.772 647.637 154.42 648.397 154.222C649.164 154.017 649.919 153.915 650.66 153.915C651.133 153.915 651.676 153.973 652.29 154.088C652.91 154.196 653.508 154.423 654.083 154.769C654.665 155.114 655.147 155.635 655.531 156.331C655.914 157.028 656.106 157.961 656.106 159.131V168.834H653.843V166.84H653.728C653.575 167.16 653.319 167.501 652.961 167.866C652.603 168.23 652.127 168.54 651.532 168.796C650.938 169.052 650.213 169.179 649.356 169.179ZM649.701 167.147C650.596 167.147 651.35 166.971 651.964 166.619C652.584 166.268 653.051 165.814 653.364 165.258C653.683 164.702 653.843 164.117 653.843 163.503V161.432C653.747 161.547 653.536 161.653 653.21 161.749C652.891 161.838 652.52 161.918 652.098 161.988C651.683 162.052 651.277 162.11 650.881 162.161C650.491 162.206 650.174 162.244 649.931 162.276C649.343 162.353 648.794 162.477 648.282 162.65C647.777 162.816 647.368 163.069 647.055 163.407C646.748 163.74 646.595 164.194 646.595 164.769C646.595 165.555 646.885 166.15 647.467 166.552C648.055 166.949 648.8 167.147 649.701 167.147ZM662.499 149.198V168.834H660.236V149.198H662.499ZM331.804 187.107V189.025H324.172V187.107H331.804ZM326.396 183.579H328.659V197.615C328.659 198.255 328.752 198.734 328.937 199.054C329.129 199.367 329.372 199.578 329.666 199.687C329.966 199.789 330.283 199.84 330.615 199.84C330.864 199.84 331.069 199.827 331.229 199.802C331.388 199.77 331.516 199.744 331.612 199.725L332.072 201.758C331.919 201.815 331.705 201.873 331.43 201.93C331.155 201.994 330.807 202.026 330.385 202.026C329.746 202.026 329.119 201.889 328.506 201.614C327.898 201.339 327.393 200.92 326.991 200.358C326.594 199.795 326.396 199.086 326.396 198.229V183.579ZM339.542 202.179C338.608 202.179 337.761 202.004 337.001 201.652C336.24 201.294 335.636 200.78 335.189 200.108C334.741 199.431 334.517 198.613 334.517 197.654C334.517 196.81 334.684 196.126 335.016 195.602C335.348 195.071 335.793 194.656 336.349 194.356C336.905 194.055 337.518 193.831 338.19 193.684C338.867 193.531 339.548 193.41 340.232 193.32C341.127 193.205 341.852 193.119 342.408 193.061C342.971 192.997 343.38 192.892 343.636 192.745C343.898 192.598 344.029 192.342 344.029 191.978V191.901C344.029 190.955 343.77 190.22 343.252 189.696C342.741 189.172 341.964 188.91 340.922 188.91C339.842 188.91 338.995 189.146 338.381 189.619C337.768 190.092 337.336 190.597 337.087 191.134L334.939 190.367C335.323 189.472 335.834 188.775 336.473 188.277C337.119 187.772 337.822 187.42 338.583 187.222C339.35 187.017 340.104 186.915 340.846 186.915C341.319 186.915 341.862 186.973 342.475 187.088C343.096 187.196 343.693 187.423 344.268 187.769C344.85 188.114 345.333 188.635 345.716 189.331C346.1 190.028 346.292 190.961 346.292 192.131V201.834H344.029V199.84H343.914C343.76 200.16 343.505 200.501 343.147 200.866C342.789 201.23 342.313 201.54 341.718 201.796C341.124 202.052 340.398 202.179 339.542 202.179ZM339.887 200.147C340.782 200.147 341.536 199.971 342.15 199.619C342.77 199.268 343.236 198.814 343.549 198.258C343.869 197.702 344.029 197.117 344.029 196.503V194.432C343.933 194.547 343.722 194.653 343.396 194.749C343.076 194.838 342.706 194.918 342.284 194.988C341.868 195.052 341.462 195.11 341.066 195.161C340.676 195.206 340.36 195.244 340.117 195.276C339.529 195.353 338.979 195.477 338.468 195.65C337.963 195.816 337.554 196.069 337.24 196.407C336.934 196.74 336.78 197.194 336.78 197.769C336.78 198.555 337.071 199.15 337.653 199.552C338.241 199.949 338.985 200.147 339.887 200.147ZM352.109 187.107L355.638 193.128L359.166 187.107H361.774L357.018 194.471L361.774 201.834H359.166L355.638 196.12L352.109 201.834H349.501L354.18 194.471L349.501 187.107H352.109ZM372.596 201.834V187.107H374.782V189.331H374.936C375.204 188.603 375.69 188.011 376.393 187.558C377.096 187.104 377.889 186.877 378.771 186.877C378.937 186.877 379.145 186.88 379.394 186.886C379.644 186.893 379.832 186.902 379.96 186.915V189.216C379.883 189.197 379.708 189.168 379.433 189.13C379.164 189.085 378.88 189.063 378.579 189.063C377.863 189.063 377.224 189.213 376.662 189.514C376.106 189.808 375.665 190.217 375.339 190.741C375.019 191.259 374.859 191.85 374.859 192.515V201.834H372.596ZM388.369 202.141C386.95 202.141 385.726 201.828 384.697 201.201C383.674 200.569 382.884 199.687 382.328 198.555C381.779 197.417 381.504 196.094 381.504 194.586C381.504 193.077 381.779 191.748 382.328 190.597C382.884 189.44 383.658 188.539 384.649 187.893C385.646 187.241 386.809 186.915 388.139 186.915C388.906 186.915 389.663 187.043 390.411 187.299C391.159 187.554 391.84 187.97 392.453 188.545C393.067 189.114 393.556 189.868 393.92 190.808C394.285 191.748 394.467 192.905 394.467 194.279V195.238H383.115V193.282H392.166C392.166 192.451 391.999 191.709 391.667 191.057C391.341 190.405 390.874 189.891 390.267 189.514C389.666 189.136 388.957 188.948 388.139 188.948C387.237 188.948 386.458 189.172 385.799 189.619C385.147 190.06 384.645 190.635 384.294 191.345C383.942 192.054 383.767 192.815 383.767 193.627V194.931C383.767 196.043 383.958 196.986 384.342 197.759C384.732 198.526 385.272 199.111 385.962 199.514C386.653 199.91 387.455 200.108 388.369 200.108C388.963 200.108 389.5 200.025 389.98 199.859C390.465 199.687 390.884 199.431 391.236 199.092C391.587 198.747 391.859 198.319 392.051 197.807L394.237 198.421C394.007 199.162 393.62 199.814 393.077 200.377C392.533 200.933 391.862 201.368 391.063 201.681C390.264 201.988 389.366 202.141 388.369 202.141ZM404.314 187.107V189.025H396.682V187.107H404.314ZM398.906 183.579H401.169V197.615C401.169 198.255 401.262 198.734 401.447 199.054C401.639 199.367 401.882 199.578 402.176 199.687C402.476 199.789 402.792 199.84 403.125 199.84C403.374 199.84 403.579 199.827 403.738 199.802C403.898 199.77 404.026 199.744 404.122 199.725L404.582 201.758C404.429 201.815 404.215 201.873 403.94 201.93C403.665 201.994 403.317 202.026 402.895 202.026C402.256 202.026 401.629 201.889 401.015 201.614C400.408 201.339 399.903 200.92 399.501 200.358C399.104 199.795 398.906 199.086 398.906 198.229V183.579ZM416.999 195.813V187.107H419.262V201.834H416.999V199.341H416.845C416.5 200.089 415.963 200.725 415.235 201.249C414.506 201.767 413.585 202.026 412.473 202.026C411.553 202.026 410.735 201.825 410.019 201.422C409.303 201.013 408.74 200.399 408.331 199.581C407.922 198.756 407.718 197.718 407.718 196.465V187.107H409.98V196.312C409.98 197.385 410.281 198.242 410.882 198.881C411.489 199.52 412.262 199.84 413.202 199.84C413.764 199.84 414.336 199.696 414.918 199.408C415.506 199.121 415.998 198.68 416.395 198.085C416.797 197.491 416.999 196.733 416.999 195.813ZM423.406 201.834V187.107H425.592V189.331H425.745C426.014 188.603 426.5 188.011 427.203 187.558C427.906 187.104 428.699 186.877 429.581 186.877C429.747 186.877 429.955 186.88 430.204 186.886C430.453 186.893 430.642 186.902 430.77 186.915V189.216C430.693 189.197 430.517 189.168 430.242 189.13C429.974 189.085 429.689 189.063 429.389 189.063C428.673 189.063 428.034 189.213 427.471 189.514C426.915 189.808 426.474 190.217 426.148 190.741C425.829 191.259 425.669 191.85 425.669 192.515V201.834H423.406ZM435.715 192.975V201.834H433.452V187.107H435.638V189.408H435.83C436.175 188.66 436.699 188.059 437.402 187.606C438.105 187.145 439.013 186.915 440.125 186.915C441.122 186.915 441.995 187.12 442.743 187.529C443.491 187.932 444.072 188.545 444.488 189.37C444.903 190.188 445.111 191.223 445.111 192.476V201.834H442.848V192.63C442.848 191.473 442.548 190.571 441.947 189.926C441.346 189.274 440.521 188.948 439.473 188.948C438.751 188.948 438.105 189.104 437.536 189.418C436.974 189.731 436.53 190.188 436.204 190.789C435.878 191.39 435.715 192.118 435.715 192.975Z" fill="black"/>
<rect x="180.719" y="268.834" width="432" height="95" rx="10" fill="#AE8FDA"/>
<path d="M358.628 326.807H351.727V306.443H358.767C360.789 306.443 362.526 306.851 363.977 307.666C365.436 308.475 366.556 309.638 367.338 311.156C368.12 312.674 368.511 314.491 368.511 316.605C368.511 318.726 368.117 320.549 367.328 322.074C366.546 323.599 365.416 324.769 363.938 325.584C362.466 326.399 360.696 326.807 358.628 326.807ZM355.416 323.615H358.449C359.867 323.615 361.051 323.357 361.999 322.84C362.946 322.316 363.659 321.537 364.136 320.503C364.614 319.462 364.852 318.163 364.852 316.605C364.852 315.047 364.614 313.755 364.136 312.727C363.659 311.693 362.953 310.921 362.018 310.411C361.09 309.894 359.937 309.635 358.558 309.635H355.416V323.615ZM378.619 327.105C377.087 327.105 375.765 326.787 374.651 326.151C373.544 325.508 372.692 324.599 372.096 323.426C371.499 322.246 371.201 320.858 371.201 319.26C371.201 317.689 371.499 316.31 372.096 315.124C372.699 313.93 373.541 313.002 374.621 312.34C375.702 311.67 376.971 311.335 378.43 311.335C379.371 311.335 380.259 311.488 381.094 311.793C381.936 312.091 382.679 312.555 383.322 313.185C383.971 313.814 384.482 314.617 384.853 315.591C385.224 316.559 385.41 317.712 385.41 319.051V320.155H372.891V317.729H381.96C381.953 317.039 381.804 316.426 381.512 315.889C381.22 315.346 380.813 314.918 380.289 314.607C379.772 314.295 379.169 314.139 378.479 314.139C377.744 314.139 377.097 314.318 376.54 314.676C375.984 315.028 375.549 315.492 375.238 316.068C374.933 316.638 374.777 317.265 374.771 317.948V320.065C374.771 320.954 374.933 321.716 375.258 322.352C375.583 322.982 376.037 323.466 376.62 323.804C377.203 324.135 377.886 324.301 378.668 324.301C379.192 324.301 379.666 324.228 380.09 324.082C380.514 323.93 380.882 323.708 381.194 323.416C381.505 323.125 381.741 322.763 381.9 322.332L385.261 322.71C385.049 323.599 384.644 324.374 384.048 325.037C383.458 325.693 382.702 326.204 381.781 326.568C380.859 326.926 379.805 327.105 378.619 327.105ZM396.081 311.534V314.318H387.301V311.534H396.081ZM389.469 307.875H393.069V322.213C393.069 322.697 393.141 323.068 393.287 323.327C393.44 323.579 393.639 323.751 393.884 323.844C394.129 323.937 394.401 323.983 394.699 323.983C394.925 323.983 395.13 323.966 395.316 323.933C395.508 323.9 395.654 323.87 395.753 323.844L396.36 326.658C396.167 326.724 395.892 326.797 395.534 326.876C395.183 326.956 394.752 327.002 394.242 327.016C393.34 327.042 392.528 326.906 391.806 326.608C391.083 326.303 390.51 325.832 390.086 325.196C389.668 324.56 389.462 323.764 389.469 322.81V307.875ZM403.487 327.115C402.519 327.115 401.647 326.943 400.871 326.598C400.103 326.247 399.493 325.73 399.042 325.047C398.598 324.364 398.376 323.522 398.376 322.521C398.376 321.66 398.535 320.947 398.853 320.384C399.171 319.82 399.605 319.369 400.156 319.031C400.706 318.693 401.326 318.438 402.015 318.266C402.711 318.087 403.43 317.957 404.173 317.878C405.067 317.785 405.793 317.702 406.35 317.629C406.907 317.55 407.311 317.43 407.563 317.271C407.822 317.106 407.951 316.85 407.951 316.506V316.446C407.951 315.697 407.729 315.117 407.285 314.706C406.841 314.295 406.201 314.09 405.366 314.09C404.484 314.09 403.785 314.282 403.268 314.666C402.757 315.051 402.413 315.505 402.234 316.028L398.873 315.551C399.138 314.623 399.576 313.848 400.185 313.224C400.795 312.595 401.541 312.124 402.423 311.813C403.304 311.494 404.279 311.335 405.346 311.335C406.082 311.335 406.814 311.421 407.543 311.594C408.272 311.766 408.939 312.051 409.542 312.449C410.145 312.84 410.629 313.374 410.994 314.05C411.365 314.726 411.55 315.571 411.55 316.585V326.807H408.09V324.709H407.971C407.752 325.133 407.444 325.531 407.046 325.902C406.655 326.267 406.161 326.562 405.565 326.787C404.975 327.006 404.282 327.115 403.487 327.115ZM404.421 324.47C405.144 324.47 405.77 324.328 406.3 324.043C406.831 323.751 407.238 323.367 407.523 322.889C407.815 322.412 407.961 321.892 407.961 321.328V319.528C407.848 319.621 407.656 319.707 407.384 319.787C407.119 319.867 406.821 319.936 406.489 319.996C406.158 320.055 405.83 320.108 405.505 320.155C405.18 320.201 404.898 320.241 404.66 320.274C404.123 320.347 403.642 320.466 403.218 320.632C402.794 320.798 402.459 321.03 402.214 321.328C401.969 321.62 401.846 321.998 401.846 322.462C401.846 323.125 402.088 323.625 402.572 323.963C403.056 324.301 403.672 324.47 404.421 324.47ZM415.17 326.807V311.534H418.769V326.807H415.17ZM416.979 309.367C416.409 309.367 415.919 309.178 415.508 308.8C415.097 308.415 414.891 307.955 414.891 307.418C414.891 306.874 415.097 306.413 415.508 306.036C415.919 305.651 416.409 305.459 416.979 305.459C417.556 305.459 418.047 305.651 418.451 306.036C418.862 306.413 419.067 306.874 419.067 307.418C419.067 307.955 418.862 308.415 418.451 308.8C418.047 309.178 417.556 309.367 416.979 309.367ZM426.07 306.443V326.807H422.471V306.443H426.07ZM441.842 315.571L438.561 315.929C438.468 315.598 438.306 315.286 438.074 314.994C437.848 314.703 437.544 314.467 437.159 314.288C436.775 314.109 436.304 314.02 435.747 314.02C434.998 314.02 434.368 314.182 433.858 314.507C433.354 314.832 433.106 315.253 433.112 315.77C433.106 316.214 433.268 316.575 433.599 316.854C433.938 317.132 434.494 317.361 435.27 317.54L437.875 318.097C439.32 318.408 440.394 318.902 441.097 319.578C441.806 320.254 442.164 321.139 442.17 322.233C442.164 323.194 441.882 324.043 441.325 324.778C440.775 325.508 440.009 326.078 439.028 326.489C438.047 326.9 436.92 327.105 435.648 327.105C433.778 327.105 432.274 326.714 431.134 325.932C429.993 325.143 429.314 324.046 429.095 322.641L432.605 322.303C432.764 322.992 433.102 323.512 433.619 323.864C434.136 324.215 434.809 324.391 435.638 324.391C436.493 324.391 437.179 324.215 437.696 323.864C438.22 323.512 438.482 323.078 438.482 322.561C438.482 322.124 438.313 321.762 437.974 321.477C437.643 321.192 437.126 320.974 436.423 320.821L433.818 320.274C432.353 319.969 431.269 319.456 430.567 318.733C429.864 318.004 429.516 317.082 429.523 315.969C429.516 315.028 429.771 314.212 430.288 313.523C430.812 312.827 431.538 312.29 432.466 311.912C433.401 311.528 434.478 311.335 435.697 311.335C437.487 311.335 438.896 311.716 439.923 312.479C440.957 313.241 441.597 314.272 441.842 315.571Z" fill="white"/>
<circle cx="194.548" cy="138.349" r="40.2085" fill="#E9ECF3"/>
<path d="M178.914 153.879C178.914 146.814 184.641 141.087 191.706 141.087H197.392C204.456 141.087 210.183 146.814 210.183 153.879H178.914Z" fill="#5520B2"/>
<circle cx="194.426" cy="130.533" r="7.71393" fill="#5520B2"/>
<path fill-rule="evenodd" clip-rule="evenodd" d="M280.624 115.561C283.859 114.841 287.065 116.88 287.784 120.115C292.019 139.145 290.435 159.656 281.966 178.853C277.828 188.234 272.347 196.619 265.844 203.874C263.633 206.342 259.839 206.549 257.372 204.337C254.904 202.126 254.696 198.333 256.908 195.865C262.578 189.539 267.365 182.22 270.987 174.01C278.388 157.232 279.768 139.338 276.071 122.721C275.351 119.486 277.39 116.281 280.624 115.561Z" fill="#EDEBF8"/>
<path fill-rule="evenodd" clip-rule="evenodd" d="M199.873 51.9553C200.145 48.6527 203.042 46.196 206.345 46.468C225.775 48.0683 244.893 55.6639 260.715 69.445C268.447 76.1789 274.829 83.9003 279.829 92.262C281.53 95.1059 280.603 98.7902 277.759 100.491C274.915 102.192 271.231 101.265 269.53 98.4208C265.17 91.1304 259.601 84.3876 252.834 78.4939C239.006 66.4496 222.326 59.8249 205.36 58.4275C202.057 58.1555 199.601 55.2578 199.873 51.9553Z" fill="#AE8FDA"/>
<path fill-rule="evenodd" clip-rule="evenodd" d="M113.217 101.182C110.312 99.5883 109.249 95.9412 110.843 93.0359C120.219 75.9429 134.944 61.5772 153.975 52.7411C163.274 48.4235 172.926 45.7406 182.599 44.5802C185.889 44.1856 188.876 46.5328 189.271 49.8229C189.666 53.113 187.319 56.1002 184.028 56.4948C175.594 57.5065 167.168 59.8463 159.029 63.6252C142.396 71.3476 129.551 83.8818 121.364 98.8073C119.77 101.713 116.123 102.776 113.217 101.182Z" fill="#5520B2"/>
<path d="M108.98 111.7C112.213 112.424 114.248 115.633 113.524 118.866C109.803 135.479 111.159 153.374 118.537 170.163C122.147 178.378 126.924 185.703 132.585 192.037C134.793 194.507 134.581 198.3 132.11 200.509C129.639 202.717 125.846 202.504 123.638 200.033C117.145 192.769 111.676 184.377 107.551 174.991C99.1086 155.781 97.5531 135.269 101.814 116.244C102.538 113.01 105.746 110.976 108.98 111.7Z" fill="#5520B2"/>
</svg>
