<svg width="751" height="393" viewBox="0 0 751 393" fill="none" xmlns="http://www.w3.org/2000/svg">
<g clip-path="url(#clip0_269_1078)">
<rect width="751" height="393" rx="20" fill="white"/>
<path d="M226.55 48V24.2H230.324V48H226.55ZM243.141 30.558C244.139 30.558 245.147 30.7733 246.167 31.204C247.21 31.612 248.105 32.36 248.853 33.448C249.601 34.536 249.975 35.998 249.975 37.834V48H246.405V37.834C246.405 36.3833 245.997 35.3407 245.181 34.706C244.365 34.0487 243.413 33.72 242.325 33.72C241.26 33.72 240.342 34.094 239.571 34.842C238.801 35.59 238.415 36.8027 238.415 38.48V48H234.845V31H238.415V32.7C239.027 32.0653 239.73 31.5553 240.523 31.17C241.339 30.762 242.212 30.558 243.141 30.558ZM268.669 44.702C267.853 45.858 266.81 46.776 265.541 47.456C264.271 48.1133 262.9 48.442 261.427 48.442C259.817 48.442 258.321 48.0453 256.939 47.252C255.579 46.436 254.502 45.348 253.709 43.988C252.915 42.6053 252.519 41.1093 252.519 39.5C252.519 37.8907 252.915 36.406 253.709 35.046C254.502 33.686 255.579 32.6093 256.939 31.816C258.321 31 259.817 30.592 261.427 30.592C262.877 30.592 264.226 30.9207 265.473 31.578C266.742 32.2353 267.796 33.142 268.635 34.298L265.711 36.27C265.167 35.59 264.521 35.0687 263.773 34.706C263.047 34.3433 262.265 34.162 261.427 34.162C260.452 34.162 259.557 34.4 258.741 34.876C257.925 35.352 257.279 35.998 256.803 36.814C256.327 37.63 256.089 38.5253 256.089 39.5C256.089 40.4747 256.327 41.37 256.803 42.186C257.279 43.002 257.925 43.6593 258.741 44.158C259.557 44.634 260.452 44.872 261.427 44.872C262.265 44.872 263.047 44.6907 263.773 44.328C264.521 43.9427 265.167 43.4213 265.711 42.764L268.669 44.702ZM278.991 48.442C277.382 48.442 275.886 48.0453 274.503 47.252C273.143 46.436 272.066 45.348 271.273 43.988C270.48 42.6053 270.083 41.1093 270.083 39.5C270.083 37.8907 270.48 36.406 271.273 35.046C272.066 33.686 273.143 32.6093 274.503 31.816C275.886 31 277.382 30.592 278.991 30.592C280.6 30.592 282.085 31 283.445 31.816C284.828 32.6093 285.916 33.686 286.709 35.046C287.502 36.406 287.899 37.8907 287.899 39.5C287.899 41.1093 287.502 42.6053 286.709 43.988C285.916 45.348 284.828 46.436 283.445 47.252C282.085 48.0453 280.6 48.442 278.991 48.442ZM278.991 44.872C279.966 44.872 280.861 44.634 281.677 44.158C282.493 43.6593 283.139 43.002 283.615 42.186C284.091 41.37 284.329 40.4747 284.329 39.5C284.329 38.5253 284.091 37.63 283.615 36.814C283.139 35.998 282.493 35.352 281.677 34.876C280.861 34.4 279.966 34.162 278.991 34.162C278.016 34.162 277.121 34.4 276.305 34.876C275.489 35.352 274.832 35.998 274.333 36.814C273.857 37.63 273.619 38.5253 273.619 39.5C273.619 40.4747 273.857 41.37 274.333 42.186C274.832 43.002 275.489 43.6593 276.305 44.158C277.121 44.634 278.016 44.872 278.991 44.872ZM310.176 30.558C311.174 30.558 312.182 30.7733 313.202 31.204C314.245 31.612 315.14 32.36 315.888 33.448C316.636 34.536 317.01 35.998 317.01 37.834V48H313.44V37.834C313.44 36.3833 313.032 35.3407 312.216 34.706C311.4 34.0487 310.448 33.72 309.36 33.72C308.476 33.72 307.672 33.992 306.946 34.536C306.244 35.0573 305.779 35.9187 305.552 37.12C305.575 37.256 305.586 37.494 305.586 37.834V48H302.016V37.834C302.016 36.3607 301.608 35.3067 300.792 34.672C299.999 34.0373 299.058 33.72 297.97 33.72C297.132 33.72 296.35 33.9693 295.624 34.468C294.922 34.9667 294.446 35.76 294.196 36.848V48H290.626V31H294.196V32.53C294.808 31.918 295.5 31.442 296.27 31.102C297.041 30.7393 297.868 30.558 298.752 30.558C299.84 30.558 300.928 30.8073 302.016 31.306C303.127 31.782 304 32.5867 304.634 33.72C305.201 32.836 305.972 32.088 306.946 31.476C307.944 30.864 309.02 30.558 310.176 30.558ZM328.464 30.558C330.118 30.558 331.592 30.966 332.884 31.782C334.176 32.5753 335.184 33.6633 335.91 35.046C336.635 36.406 336.998 37.902 336.998 39.534C336.998 39.806 336.952 40.2367 336.862 40.826H323.126C323.42 42.186 324.055 43.274 325.03 44.09C326.027 44.906 327.285 45.314 328.804 45.314C329.733 45.314 330.617 45.11 331.456 44.702C332.317 44.294 332.952 43.7613 333.36 43.104L336.148 44.736C335.377 45.9147 334.357 46.8327 333.088 47.49C331.818 48.1247 330.368 48.442 328.736 48.442C326.922 48.442 325.313 48.0567 323.908 47.286C322.525 46.5153 321.448 45.45 320.678 44.09C319.93 42.73 319.556 41.2 319.556 39.5C319.556 37.8227 319.93 36.304 320.678 34.944C321.448 33.584 322.502 32.5187 323.84 31.748C325.2 30.9547 326.741 30.558 328.464 30.558ZM333.598 38.004C333.416 36.6667 332.861 35.6127 331.932 34.842C331.025 34.0713 329.869 33.686 328.464 33.686C327.489 33.686 326.594 33.89 325.778 34.298C324.962 34.6833 324.316 35.216 323.84 35.896C323.364 36.5533 323.114 37.256 323.092 38.004H333.598ZM355.894 43.784L360.79 31H364.598L358.07 48H353.684L347.19 31H350.964L355.894 43.784ZM369.488 35.692C369.488 36.2587 369.771 36.678 370.338 36.95C370.927 37.1993 371.868 37.4827 373.16 37.8C374.474 38.0947 375.562 38.412 376.424 38.752C377.285 39.0693 378.022 39.5793 378.634 40.282C379.268 40.9847 379.586 41.9367 379.586 43.138C379.586 44.226 379.268 45.178 378.634 45.994C377.999 46.7873 377.138 47.3993 376.05 47.83C374.984 48.238 373.806 48.442 372.514 48.442C370.768 48.442 369.272 48.102 368.026 47.422C366.779 46.7193 365.872 45.7447 365.306 44.498L368.23 42.968C368.57 43.8293 369.102 44.4753 369.828 44.906C370.576 45.314 371.471 45.518 372.514 45.518C373.488 45.518 374.327 45.314 375.03 44.906C375.755 44.498 376.118 43.92 376.118 43.172C376.118 42.5147 375.789 42.0387 375.132 41.744C374.497 41.4267 373.488 41.098 372.106 40.758C370.768 40.418 369.692 40.1007 368.876 39.806C368.082 39.4887 367.391 39.0127 366.802 38.378C366.212 37.7207 365.918 36.8593 365.918 35.794C365.918 34.7513 366.212 33.8333 366.802 33.04C367.391 32.2467 368.184 31.6347 369.182 31.204C370.179 30.7733 371.29 30.558 372.514 30.558C373.964 30.558 375.256 30.8753 376.39 31.51C377.546 32.122 378.43 32.9833 379.042 34.094L376.118 35.556C375.483 34.1733 374.282 33.482 372.514 33.482C371.584 33.482 370.848 33.686 370.304 34.094C369.76 34.4793 369.488 35.012 369.488 35.692ZM413.522 42.152L418.384 24.2H422.26L415.664 48H411.55L406.28 30.592L401.01 48H396.896L390.3 24.2H394.176L399.038 42.152L404.308 24.2H408.252L413.522 42.152ZM426.503 27.634C425.823 27.634 425.279 27.4527 424.871 27.09C424.485 26.7047 424.293 26.1833 424.293 25.526C424.293 24.8687 424.485 24.3587 424.871 23.996C425.279 23.6107 425.823 23.418 426.503 23.418C427.183 23.418 427.715 23.6107 428.101 23.996C428.509 24.3587 428.713 24.8687 428.713 25.526C428.713 26.1833 428.509 26.7047 428.101 27.09C427.715 27.4527 427.183 27.634 426.503 27.634ZM424.701 48V31H428.271V48H424.701ZM438.309 42.424C438.309 43.3307 438.49 43.954 438.853 44.294C439.238 44.634 439.85 44.804 440.689 44.804C441.165 44.804 441.709 44.77 442.321 44.702V48C441.301 48.1133 440.439 48.17 439.737 48.17C438.037 48.17 436.779 47.7733 435.963 46.98C435.147 46.164 434.739 44.7247 434.739 42.662V34.23H431.237V31H434.739V26.58L438.309 25.356V31H442.253V34.23H438.309V42.424ZM460.446 48H456.876V37.902C456.876 36.4513 456.468 35.4087 455.652 34.774C454.858 34.1393 453.918 33.822 452.83 33.822C451.991 33.822 451.209 34.0713 450.484 34.57C449.781 35.0687 449.305 35.862 449.056 36.95V48H445.486V24.2H449.056V32.632C449.668 32.02 450.359 31.544 451.13 31.204C451.9 30.8413 452.728 30.66 453.612 30.66C454.609 30.66 455.618 30.8753 456.638 31.306C457.68 31.714 458.576 32.4507 459.324 33.516C460.072 34.5813 460.446 36.0207 460.446 37.834V48ZM479.704 48H476.134V37.902C476.134 36.4513 475.726 35.4087 474.91 34.774C474.116 34.1393 473.176 33.822 472.088 33.822C471.249 33.822 470.467 34.0713 469.742 34.57C469.039 35.0687 468.563 35.862 468.314 36.95V48H464.744V24.2H468.314V32.632C468.926 32.02 469.617 31.544 470.388 31.204C471.158 30.8413 471.986 30.66 472.87 30.66C473.867 30.66 474.876 30.8753 475.896 31.306C476.938 31.714 477.834 32.4507 478.582 33.516C479.33 34.5813 479.704 36.0207 479.704 37.834V48ZM491.225 48.442C489.616 48.442 488.12 48.0453 486.737 47.252C485.377 46.436 484.301 45.348 483.507 43.988C482.714 42.6053 482.317 41.1093 482.317 39.5C482.317 37.8907 482.714 36.406 483.507 35.046C484.301 33.686 485.377 32.6093 486.737 31.816C488.12 31 489.616 30.592 491.225 30.592C492.835 30.592 494.319 31 495.679 31.816C497.062 32.6093 498.15 33.686 498.943 35.046C499.737 36.406 500.133 37.8907 500.133 39.5C500.133 41.1093 499.737 42.6053 498.943 43.988C498.15 45.348 497.062 46.436 495.679 47.252C494.319 48.0453 492.835 48.442 491.225 48.442ZM491.225 44.872C492.2 44.872 493.095 44.634 493.911 44.158C494.727 43.6593 495.373 43.002 495.849 42.186C496.325 41.37 496.563 40.4747 496.563 39.5C496.563 38.5253 496.325 37.63 495.849 36.814C495.373 35.998 494.727 35.352 493.911 34.876C493.095 34.4 492.2 34.162 491.225 34.162C490.251 34.162 489.355 34.4 488.539 34.876C487.723 35.352 487.066 35.998 486.567 36.814C486.091 37.63 485.853 38.5253 485.853 39.5C485.853 40.4747 486.091 41.37 486.567 42.186C487.066 43.002 487.723 43.6593 488.539 44.158C489.355 44.634 490.251 44.872 491.225 44.872ZM506.63 43.784C506.63 44.1693 506.709 44.4413 506.868 44.6C507.049 44.736 507.333 44.804 507.718 44.804C508.013 44.804 508.364 44.77 508.772 44.702V48C507.775 48.136 507.072 48.204 506.664 48.204C505.508 48.204 504.613 47.898 503.978 47.286C503.366 46.674 503.06 45.586 503.06 44.022V24.2H506.63V43.784ZM525.061 24.2H528.631V48H525.061V45.926C524.268 46.7193 523.35 47.3427 522.307 47.796C521.287 48.2267 520.222 48.442 519.111 48.442C517.411 48.442 515.915 48.0567 514.623 47.286C513.331 46.4927 512.323 45.4273 511.597 44.09C510.895 42.73 510.543 41.2113 510.543 39.534C510.543 37.8567 510.895 36.338 511.597 34.978C512.323 33.618 513.331 32.5527 514.623 31.782C515.915 30.9887 517.411 30.592 519.111 30.592C520.222 30.592 521.287 30.8187 522.307 31.272C523.35 31.7027 524.268 32.3147 525.061 33.108V24.2ZM519.519 45.008C520.539 45.008 521.469 44.77 522.307 44.294C523.169 43.818 523.837 43.1607 524.313 42.322C524.812 41.4833 525.061 40.5427 525.061 39.5C525.061 38.4573 524.812 37.528 524.313 36.712C523.837 35.8733 523.169 35.2273 522.307 34.774C521.469 34.298 520.539 34.06 519.519 34.06C518.499 34.06 517.57 34.298 516.731 34.774C515.915 35.2273 515.269 35.8733 514.793 36.712C514.34 37.5507 514.113 38.4913 514.113 39.534C514.113 40.5767 514.34 41.5173 514.793 42.356C515.269 43.1947 515.915 43.852 516.731 44.328C517.57 44.7813 518.499 45.008 519.519 45.008Z" fill="black"/>
<path opacity="0.5" d="M296.657 66.8H299.296L305.913 85H303.599L302.247 81.282H293.706L292.367 85H290.04L296.657 66.8ZM294.512 79.098H301.441L297.97 69.595L294.512 79.098ZM310.187 91.5H308.003V72H310.187V74.223C310.629 73.4603 311.219 72.845 311.955 72.377C312.692 71.9003 313.567 71.662 314.581 71.662C315.526 71.662 316.41 71.8397 317.233 72.195C318.065 72.5503 318.793 73.0443 319.417 73.677C320.041 74.301 320.531 75.0247 320.886 75.848C321.242 76.6713 321.419 77.5553 321.419 78.5C321.419 79.4447 321.242 80.333 320.886 81.165C320.531 81.997 320.041 82.7293 319.417 83.362C318.793 83.986 318.065 84.4757 317.233 84.831C316.41 85.1863 315.526 85.364 314.581 85.364C313.567 85.364 312.692 85.13 311.955 84.662C311.219 84.1853 310.629 83.5657 310.187 82.803V91.5ZM314.555 73.781C313.715 73.781 312.978 73.9933 312.345 74.418C311.713 74.8427 311.223 75.4103 310.876 76.121C310.538 76.8317 310.369 77.6247 310.369 78.5C310.369 79.3667 310.538 80.1597 310.876 80.879C311.223 81.5983 311.708 82.1703 312.332 82.595C312.965 83.0197 313.706 83.232 314.555 83.232C315.396 83.232 316.167 83.024 316.869 82.608C317.571 82.1833 318.135 81.6157 318.559 80.905C318.984 80.1857 319.196 79.384 319.196 78.5C319.196 77.6333 318.988 76.8447 318.572 76.134C318.156 75.4147 317.597 74.8427 316.895 74.418C316.193 73.9933 315.413 73.781 314.555 73.781ZM323.593 85V72H325.777V73.625C326.237 73.0183 326.817 72.5373 327.519 72.182C328.221 71.818 328.984 71.636 329.807 71.636C330.31 71.636 330.795 71.701 331.263 71.831L330.379 74.015C330.024 73.9023 329.677 73.846 329.339 73.846C328.689 73.846 328.091 74.0063 327.545 74.327C327.008 74.639 326.579 75.0637 326.258 75.601C325.938 76.1383 325.777 76.7363 325.777 77.395V85H323.593ZM344.223 85.338C343.123 85.338 342.143 85.091 341.285 84.597C340.436 84.0943 339.769 83.427 339.283 82.595C338.798 81.7543 338.555 80.8227 338.555 79.8H340.739C340.739 80.4153 340.882 80.9787 341.168 81.49C341.454 81.9927 341.857 82.3957 342.377 82.699C342.897 83.0023 343.513 83.154 344.223 83.154C344.839 83.154 345.411 83.0023 345.939 82.699C346.477 82.3957 346.91 81.9927 347.239 81.49C347.569 80.9787 347.733 80.4153 347.733 79.8C347.733 79.0287 347.534 78.3873 347.135 77.876C346.745 77.356 346.199 76.9703 345.497 76.719C344.804 76.459 344.011 76.329 343.118 76.329V74.574C344.349 74.574 345.333 74.3183 346.069 73.807C346.815 73.2957 347.187 72.5417 347.187 71.545C347.187 71.0163 347.044 70.531 346.758 70.089C346.472 69.647 346.095 69.296 345.627 69.036C345.168 68.7673 344.674 68.633 344.145 68.633C343.608 68.633 343.092 68.7673 342.598 69.036C342.104 69.296 341.701 69.647 341.389 70.089C341.077 70.531 340.921 71.0163 340.921 71.545H338.737C338.737 70.843 338.88 70.1843 339.166 69.569C339.461 68.9537 339.86 68.412 340.362 67.944C340.874 67.476 341.45 67.112 342.091 66.852C342.733 66.5833 343.409 66.449 344.119 66.449C345.047 66.449 345.909 66.6787 346.706 67.138C347.504 67.5973 348.145 68.2127 348.63 68.984C349.124 69.7553 349.371 70.609 349.371 71.545C349.371 72.3857 349.159 73.1613 348.734 73.872C348.31 74.5827 347.733 75.081 347.005 75.367C347.638 75.5837 348.171 75.9217 348.604 76.381C349.038 76.8317 349.363 77.3517 349.579 77.941C349.805 78.5303 349.917 79.15 349.917 79.8C349.917 80.814 349.653 81.7413 349.124 82.582C348.604 83.4227 347.911 84.0943 347.044 84.597C346.186 85.091 345.246 85.338 344.223 85.338ZM358.486 85.338C357.403 85.338 356.432 85.0953 355.574 84.61C354.716 84.116 353.98 83.4357 353.364 82.569C352.749 81.7023 352.281 80.7013 351.96 79.566C351.64 78.422 351.479 77.2 351.479 75.9C351.479 74.6 351.64 73.378 351.96 72.234C352.281 71.09 352.749 70.089 353.364 69.231C353.98 68.3643 354.716 67.6883 355.574 67.203C356.432 66.709 357.403 66.462 358.486 66.462C359.561 66.462 360.527 66.709 361.385 67.203C362.252 67.6883 362.984 68.3643 363.582 69.231C364.189 70.089 364.653 71.09 364.973 72.234C365.303 73.378 365.467 74.6 365.467 75.9C365.467 77.2 365.303 78.422 364.973 79.566C364.653 80.7013 364.189 81.7023 363.582 82.569C362.984 83.4357 362.252 84.116 361.385 84.61C360.527 85.0953 359.561 85.338 358.486 85.338ZM358.486 83.154C359.57 83.154 360.475 82.8203 361.203 82.153C361.94 81.477 362.49 80.5887 362.854 79.488C363.218 78.3873 363.4 77.1913 363.4 75.9C363.4 74.5393 363.21 73.313 362.828 72.221C362.456 71.1203 361.901 70.2493 361.164 69.608C360.436 68.9667 359.544 68.646 358.486 68.646C357.654 68.646 356.926 68.841 356.302 69.231C355.687 69.621 355.176 70.154 354.768 70.83C354.361 71.506 354.053 72.2817 353.845 73.157C353.646 74.0237 353.546 74.938 353.546 75.9C353.546 77.1913 353.733 78.3917 354.105 79.501C354.478 80.6017 355.028 81.4857 355.756 82.153C356.493 82.8203 357.403 83.154 358.486 83.154ZM374.044 76.108H382.364V78.292H374.044V76.108ZM391.742 85L395.265 66.8H396.942L401.856 79.722L406.757 66.8H408.434L411.97 85H409.747L407.186 71.792L402.571 84.012H401.128L396.513 71.792L393.965 85H391.742ZM424.41 72H426.594V85H424.41L424.319 82.803C423.912 83.557 423.349 84.168 422.629 84.636C421.919 85.104 421.069 85.338 420.081 85.338C419.128 85.338 418.235 85.1603 417.403 84.805C416.571 84.441 415.835 83.9427 415.193 83.31C414.561 82.6687 414.067 81.932 413.711 81.1C413.356 80.268 413.178 79.371 413.178 78.409C413.178 77.4817 413.352 76.6063 413.698 75.783C414.045 74.9597 414.526 74.2403 415.141 73.625C415.765 73.001 416.485 72.5157 417.299 72.169C418.114 71.8137 418.989 71.636 419.925 71.636C420.948 71.636 421.845 71.8787 422.616 72.364C423.388 72.8407 424.012 73.4603 424.488 74.223L424.41 72ZM420.042 83.219C420.9 83.219 421.641 83.011 422.265 82.595C422.898 82.1703 423.383 81.5983 423.721 80.879C424.068 80.1597 424.241 79.3667 424.241 78.5C424.241 77.616 424.068 76.8187 423.721 76.108C423.375 75.3887 422.885 74.821 422.252 74.405C421.628 73.9803 420.892 73.768 420.042 73.768C419.184 73.768 418.404 73.9803 417.702 74.405C417 74.8297 416.441 75.4017 416.025 76.121C415.618 76.8317 415.414 77.6247 415.414 78.5C415.414 79.3753 415.627 80.1727 416.051 80.892C416.476 81.6027 417.039 82.1703 417.741 82.595C418.443 83.011 419.21 83.219 420.042 83.219ZM437.692 72H440.006L432.895 91.5H430.581L432.934 85L428.267 72H430.659L434.026 81.997L437.692 72ZM453.733 85.338C452.632 85.338 451.653 85.091 450.795 84.597C449.946 84.0943 449.278 83.427 448.793 82.595C448.308 81.7543 448.065 80.8227 448.065 79.8H450.249C450.249 80.4153 450.392 80.9787 450.678 81.49C450.964 81.9927 451.367 82.3957 451.887 82.699C452.407 83.0023 453.022 83.154 453.733 83.154C454.348 83.154 454.92 83.0023 455.449 82.699C455.986 82.3957 456.42 81.9927 456.749 81.49C457.078 80.9787 457.243 80.4153 457.243 79.8C457.243 79.0287 457.044 78.3873 456.645 77.876C456.255 77.356 455.709 76.9703 455.007 76.719C454.314 76.459 453.521 76.329 452.628 76.329V74.574C453.859 74.574 454.842 74.3183 455.579 73.807C456.324 73.2957 456.697 72.5417 456.697 71.545C456.697 71.0163 456.554 70.531 456.268 70.089C455.982 69.647 455.605 69.296 455.137 69.036C454.678 68.7673 454.184 68.633 453.655 68.633C453.118 68.633 452.602 68.7673 452.108 69.036C451.614 69.296 451.211 69.647 450.899 70.089C450.587 70.531 450.431 71.0163 450.431 71.545H448.247C448.247 70.843 448.39 70.1843 448.676 69.569C448.971 68.9537 449.369 68.412 449.872 67.944C450.383 67.476 450.96 67.112 451.601 66.852C452.242 66.5833 452.918 66.449 453.629 66.449C454.556 66.449 455.419 66.6787 456.216 67.138C457.013 67.5973 457.655 68.2127 458.14 68.984C458.634 69.7553 458.881 70.609 458.881 71.545C458.881 72.3857 458.669 73.1613 458.244 73.872C457.819 74.5827 457.243 75.081 456.515 75.367C457.148 75.5837 457.681 75.9217 458.114 76.381C458.547 76.8317 458.872 77.3517 459.089 77.941C459.314 78.5303 459.427 79.15 459.427 79.8C459.427 80.814 459.163 81.7413 458.634 82.582C458.114 83.4227 457.421 84.0943 456.554 84.597C455.696 85.091 454.756 85.338 453.733 85.338ZM467.996 85.338C466.913 85.338 465.942 85.0953 465.084 84.61C464.226 84.116 463.489 83.4357 462.874 82.569C462.259 81.7023 461.791 80.7013 461.47 79.566C461.149 78.422 460.989 77.2 460.989 75.9C460.989 74.6 461.149 73.378 461.47 72.234C461.791 71.09 462.259 70.089 462.874 69.231C463.489 68.3643 464.226 67.6883 465.084 67.203C465.942 66.709 466.913 66.462 467.996 66.462C469.071 66.462 470.037 66.709 470.895 67.203C471.762 67.6883 472.494 68.3643 473.092 69.231C473.699 70.089 474.162 71.09 474.483 72.234C474.812 73.378 474.977 74.6 474.977 75.9C474.977 77.2 474.812 78.422 474.483 79.566C474.162 80.7013 473.699 81.7023 473.092 82.569C472.494 83.4357 471.762 84.116 470.895 84.61C470.037 85.0953 469.071 85.338 467.996 85.338ZM467.996 83.154C469.079 83.154 469.985 82.8203 470.713 82.153C471.45 81.477 472 80.5887 472.364 79.488C472.728 78.3873 472.91 77.1913 472.91 75.9C472.91 74.5393 472.719 73.313 472.338 72.221C471.965 71.1203 471.411 70.2493 470.674 69.608C469.946 68.9667 469.053 68.646 467.996 68.646C467.164 68.646 466.436 68.841 465.812 69.231C465.197 69.621 464.685 70.154 464.278 70.83C463.871 71.506 463.563 72.2817 463.355 73.157C463.156 74.0237 463.056 74.938 463.056 75.9C463.056 77.1913 463.242 78.3917 463.615 79.501C463.988 80.6017 464.538 81.4857 465.266 82.153C466.003 82.8203 466.913 83.154 467.996 83.154Z" fill="black"/>
<path d="M30.8506 323.611V329.722" stroke="#D5D7F8" stroke-width="4" stroke-linecap="round"/>
<path d="M218.864 323.611V329.722" stroke="#D5D7F8" stroke-width="4" stroke-linecap="round"/>
<path d="M405.703 323.611V329.722" stroke="#D5D7F8" stroke-width="4" stroke-linecap="round"/>
<path d="M592.542 323.611V329.722" stroke="#D5D7F8" stroke-width="4" stroke-linecap="round"/>
<path d="M124.857 323.611V329.722" stroke="#D5D7F8" stroke-width="4" stroke-linecap="round"/>
<path d="M312.872 323.611V329.722" stroke="#D5D7F8" stroke-width="4" stroke-linecap="round"/>
<path d="M499.71 323.611V329.722" stroke="#D5D7F8" stroke-width="4" stroke-linecap="round"/>
<path d="M686.549 323.611V329.722" stroke="#D5D7F8" stroke-width="4" stroke-linecap="round"/>
<path d="M77.854 323.611V329.722" stroke="#6F6F6F" stroke-width="4" stroke-linecap="round"/>
<path d="M265.868 323.611V329.722" stroke="#6F6F6F" stroke-width="4" stroke-linecap="round"/>
<path d="M452.707 323.611V329.722" stroke="#6F6F6F" stroke-width="4" stroke-linecap="round"/>
<path d="M639.545 323.611V329.722" stroke="#6F6F6F" stroke-width="4" stroke-linecap="round"/>
<path d="M171.861 323.611V329.722" stroke="#6F6F6F" stroke-width="4" stroke-linecap="round"/>
<path d="M359.875 323.611V329.722" stroke="#6F6F6F" stroke-width="4" stroke-linecap="round"/>
<path d="M546.713 323.611V329.722" stroke="#6F6F6F" stroke-width="4" stroke-linecap="round"/>
<path d="M733.553 323.611V329.722" stroke="#6F6F6F" stroke-width="4" stroke-linecap="round"/>
<path d="M7.34912 323.611V329.722" stroke="#D5D7F8" stroke-width="4" stroke-linecap="round"/>
<path d="M195.363 323.611V329.722" stroke="#D5D7F8" stroke-width="4" stroke-linecap="round"/>
<path d="M382.202 323.611V329.722" stroke="#D5D7F8" stroke-width="4" stroke-linecap="round"/>
<path d="M569.04 323.611V329.722" stroke="#D5D7F8" stroke-width="4" stroke-linecap="round"/>
<path d="M101.355 323.611V329.722" stroke="#D5D7F8" stroke-width="4" stroke-linecap="round"/>
<path d="M289.37 323.611V329.722" stroke="#D5D7F8" stroke-width="4" stroke-linecap="round"/>
<path d="M476.208 323.611V329.722" stroke="#D5D7F8" stroke-width="4" stroke-linecap="round"/>
<path d="M663.047 323.611V329.722" stroke="#D5D7F8" stroke-width="4" stroke-linecap="round"/>
<path d="M54.3523 323.611V329.722" stroke="#D5D7F8" stroke-width="4" stroke-linecap="round"/>
<path d="M242.366 323.611V329.722" stroke="#D5D7F8" stroke-width="4" stroke-linecap="round"/>
<path d="M429.205 323.611V329.722" stroke="#D5D7F8" stroke-width="4" stroke-linecap="round"/>
<path d="M616.044 323.611V329.722" stroke="#D5D7F8" stroke-width="4" stroke-linecap="round"/>
<path d="M148.359 323.611V329.722" stroke="#D5D7F8" stroke-width="4" stroke-linecap="round"/>
<path d="M336.373 323.611V329.722" stroke="#D5D7F8" stroke-width="4" stroke-linecap="round"/>
<path d="M523.212 323.611V329.722" stroke="#D5D7F8" stroke-width="4" stroke-linecap="round"/>
<path d="M710.051 323.611V329.722" stroke="#D5D7F8" stroke-width="4" stroke-linecap="round"/>
<path d="M107.578 114.215C75.9225 146.29 23.5786 152.713 1.36353 151.915V301.51H751V198.725C726.235 199.68 670.718 198.788 646.767 187.573C622.816 176.358 581.344 176.315 563.603 177.696C513.926 184.578 482.656 168.881 473.23 160.172C451.608 139.144 406.699 134.046 384.522 145.197C367.223 154.883 347.744 160.703 340.167 162.403C336.656 162.721 325.752 163.167 310.228 162.403C280.166 162.014 219.689 131.792 174.434 105.955C152.739 93.5688 125.252 96.5591 107.578 114.215Z" fill="url(#paint0_linear_269_1078)"/>
<path d="M1.36353 151.915C23.4804 152.713 75.593 146.29 107.109 114.215C124.688 96.5758 152.105 93.5897 173.708 105.977C218.758 131.809 278.943 162.014 308.863 162.403C324.318 163.167 335.174 162.721 338.67 162.403C346.214 160.703 365.607 154.883 382.828 145.197C404.908 134.046 449.618 139.144 471.145 160.172C480.529 168.881 511.66 184.578 561.118 177.696C578.781 176.315 620.069 176.358 643.915 187.573C667.76 198.788 726.27 199.577 750.925 198.621" stroke="#5C34A2" stroke-width="4" stroke-linecap="round"/>
<path d="M39.1604 229.45L0 250.342V314.654H750.999V207.117L681.07 157.971C675.569 154.105 668.7 152.724 662.132 154.163L608.338 165.952C601.762 167.393 594.884 166.007 589.38 162.13L542.057 128.801C522.549 115.062 505.104 113.399 489.177 131.165C484.458 136.428 476.719 146.205 472.424 151.819C446.811 185.297 381.54 213.259 342.619 226.198C336.169 228.343 329.239 228.266 322.751 226.242L248.45 203.066C239.613 200.309 230.034 201.275 221.925 205.741L170.828 233.879C150.538 245.053 125.875 244.772 105.845 233.139L101.427 230.573C82.2651 219.445 58.7107 219.02 39.1604 229.45Z" fill="url(#paint1_linear_269_1078)"/>
<path d="M0 251.01L53.2599 222.597C64.0705 216.829 77.0724 216.956 87.7682 222.934L120.945 241.476C131.584 247.423 144.51 247.582 155.293 241.899L223.048 206.19C231.604 201.681 241.615 200.804 250.825 203.758L322.042 226.595C328.988 228.823 336.434 228.936 343.352 226.622C379.601 214.498 437.974 189.611 466.47 159.449C475.496 149.895 482.744 138.653 492.445 129.784C494.909 127.532 497.226 125.483 499.363 123.651C508.032 116.218 519.467 116.525 528.968 122.858L585.008 160.21C593.307 165.742 603.528 167.583 613.236 165.294L657.754 154.798C668.043 152.372 678.877 154.591 687.384 160.865L750.999 207.785" stroke="#AE8FDA" stroke-width="4" stroke-linecap="round"/>
<path opacity="0.5" d="M220.067 356.091V375H217.214V356.091H220.067ZM226.761 366.58V375H224V360.818H226.65V363.126H226.826C227.152 362.375 227.663 361.772 228.358 361.317C229.06 360.861 229.943 360.634 231.008 360.634C231.975 360.634 232.821 360.837 233.547 361.243C234.274 361.643 234.837 362.24 235.237 363.034C235.637 363.828 235.837 364.81 235.837 365.979V375H233.076V366.312C233.076 365.284 232.809 364.481 232.273 363.902C231.738 363.317 231.002 363.025 230.066 363.025C229.426 363.025 228.857 363.163 228.358 363.44C227.866 363.717 227.475 364.124 227.186 364.659C226.903 365.188 226.761 365.829 226.761 366.58ZM245.513 375.286C244.141 375.286 242.959 374.975 241.968 374.354C240.983 373.726 240.226 372.861 239.696 371.759C239.167 370.657 238.902 369.396 238.902 367.974C238.902 366.533 239.173 365.262 239.715 364.161C240.257 363.053 241.02 362.188 242.005 361.566C242.989 360.944 244.15 360.634 245.485 360.634C246.563 360.634 247.523 360.834 248.366 361.234C249.209 361.628 249.89 362.182 250.407 362.896C250.93 363.61 251.241 364.444 251.339 365.398H248.652C248.505 364.733 248.166 364.161 247.637 363.68C247.114 363.2 246.412 362.96 245.532 362.96C244.762 362.96 244.088 363.163 243.51 363.57C242.937 363.97 242.491 364.542 242.171 365.287C241.851 366.026 241.691 366.9 241.691 367.909C241.691 368.943 241.848 369.836 242.162 370.587C242.475 371.338 242.919 371.919 243.491 372.332C244.07 372.744 244.75 372.95 245.532 372.95C246.055 372.95 246.529 372.855 246.953 372.664C247.384 372.467 247.744 372.187 248.034 371.824C248.329 371.461 248.535 371.024 248.652 370.513H251.339C251.241 371.43 250.942 372.249 250.444 372.969C249.945 373.689 249.277 374.255 248.44 374.668C247.609 375.08 246.633 375.286 245.513 375.286ZM260.265 375.286C258.936 375.286 257.775 374.982 256.784 374.372C255.793 373.763 255.024 372.91 254.476 371.815C253.928 370.719 253.654 369.439 253.654 367.974C253.654 366.503 253.928 365.216 254.476 364.114C255.024 363.013 255.793 362.157 256.784 361.548C257.775 360.938 258.936 360.634 260.265 360.634C261.595 360.634 262.755 360.938 263.746 361.548C264.737 362.157 265.506 363.013 266.054 364.114C266.602 365.216 266.876 366.503 266.876 367.974C266.876 369.439 266.602 370.719 266.054 371.815C265.506 372.91 264.737 373.763 263.746 374.372C262.755 374.982 261.595 375.286 260.265 375.286ZM260.274 372.969C261.136 372.969 261.85 372.741 262.416 372.286C262.983 371.83 263.401 371.224 263.672 370.467C263.949 369.71 264.088 368.875 264.088 367.964C264.088 367.06 263.949 366.229 263.672 365.472C263.401 364.708 262.983 364.096 262.416 363.634C261.85 363.173 261.136 362.942 260.274 362.942C259.406 362.942 258.686 363.173 258.114 363.634C257.548 364.096 257.126 364.708 256.849 365.472C256.578 366.229 256.443 367.06 256.443 367.964C256.443 368.875 256.578 369.71 256.849 370.467C257.126 371.224 257.548 371.83 258.114 372.286C258.686 372.741 259.406 372.969 260.274 372.969ZM269.957 375V360.818H272.607V363.126H272.783C273.078 362.345 273.561 361.735 274.232 361.298C274.903 360.855 275.706 360.634 276.642 360.634C277.59 360.634 278.384 360.855 279.024 361.298C279.67 361.741 280.147 362.351 280.455 363.126H280.603C280.942 362.369 281.48 361.766 282.219 361.317C282.957 360.861 283.838 360.634 284.859 360.634C286.146 360.634 287.195 361.037 288.008 361.843C288.826 362.649 289.236 363.865 289.236 365.49V375H286.475V365.749C286.475 364.788 286.214 364.093 285.69 363.662C285.167 363.231 284.542 363.016 283.816 363.016C282.917 363.016 282.219 363.293 281.72 363.847C281.222 364.394 280.972 365.099 280.972 365.961V375H278.221V365.573C278.221 364.804 277.981 364.185 277.501 363.717C277.021 363.25 276.396 363.016 275.626 363.016C275.103 363.016 274.62 363.154 274.177 363.431C273.74 363.702 273.386 364.08 273.115 364.567C272.85 365.053 272.718 365.616 272.718 366.256V375H269.957ZM299.048 375.286C297.651 375.286 296.448 374.988 295.438 374.391C294.435 373.787 293.659 372.941 293.111 371.852C292.57 370.756 292.299 369.473 292.299 368.001C292.299 366.549 292.57 365.268 293.111 364.161C293.659 363.053 294.422 362.188 295.401 361.566C296.386 360.944 297.537 360.634 298.854 360.634C299.654 360.634 300.43 360.766 301.181 361.031C301.932 361.295 302.606 361.711 303.203 362.277C303.8 362.843 304.271 363.579 304.616 364.484C304.96 365.382 305.133 366.475 305.133 367.761V368.74H293.859V366.672H302.427C302.427 365.946 302.28 365.302 301.984 364.742C301.689 364.176 301.273 363.73 300.738 363.403C300.208 363.077 299.587 362.914 298.873 362.914C298.097 362.914 297.42 363.105 296.841 363.487C296.269 363.862 295.826 364.354 295.512 364.964C295.204 365.567 295.05 366.223 295.05 366.93V368.546C295.05 369.494 295.216 370.3 295.549 370.965C295.887 371.63 296.358 372.138 296.961 372.489C297.565 372.833 298.269 373.006 299.076 373.006C299.599 373.006 300.076 372.932 300.507 372.784C300.938 372.63 301.31 372.402 301.624 372.101C301.938 371.799 302.178 371.427 302.344 370.984L304.957 371.455C304.748 372.224 304.372 372.898 303.831 373.477C303.295 374.049 302.621 374.495 301.809 374.815C301.002 375.129 300.082 375.286 299.048 375.286Z" fill="black"/>
<path opacity="0.5" d="M465.917 375L460.672 356.091H463.673L467.357 370.734H467.532L471.364 356.091H474.337L478.169 370.744H478.344L482.019 356.091H485.029L479.775 375H476.904L472.924 360.837H472.777L468.797 375H465.917ZM487.409 375V360.818H490.169V375H487.409ZM488.803 358.63C488.323 358.63 487.91 358.47 487.566 358.15C487.227 357.824 487.058 357.436 487.058 356.987C487.058 356.531 487.227 356.143 487.566 355.823C487.91 355.497 488.323 355.334 488.803 355.334C489.283 355.334 489.692 355.497 490.031 355.823C490.375 356.143 490.548 356.531 490.548 356.987C490.548 357.436 490.375 357.824 490.031 358.15C489.692 358.47 489.283 358.63 488.803 358.63ZM500.503 360.818V363.034H492.757V360.818H500.503ZM494.834 357.42H497.595V370.836C497.595 371.371 497.675 371.775 497.835 372.045C497.995 372.31 498.201 372.492 498.453 372.59C498.712 372.683 498.992 372.729 499.294 372.729C499.515 372.729 499.709 372.713 499.875 372.683C500.042 372.652 500.171 372.627 500.263 372.609L500.762 374.889C500.602 374.951 500.374 375.012 500.078 375.074C499.783 375.142 499.414 375.179 498.971 375.185C498.244 375.197 497.567 375.068 496.939 374.797C496.311 374.526 495.804 374.107 495.416 373.541C495.028 372.975 494.834 372.264 494.834 371.408V357.42ZM506.622 366.58V375H503.862V356.091H506.585V363.126H506.761C507.093 362.363 507.601 361.757 508.284 361.308C508.968 360.858 509.86 360.634 510.962 360.634C511.934 360.634 512.784 360.834 513.51 361.234C514.243 361.634 514.809 362.231 515.209 363.025C515.615 363.813 515.818 364.798 515.818 365.979V375H513.058V366.312C513.058 365.272 512.79 364.465 512.254 363.893C511.719 363.314 510.974 363.025 510.02 363.025C509.368 363.025 508.783 363.163 508.266 363.44C507.755 363.717 507.352 364.124 507.056 364.659C506.767 365.188 506.622 365.829 506.622 366.58ZM522.263 366.58V375H519.502V356.091H522.226V363.126H522.401C522.734 362.363 523.242 361.757 523.925 361.308C524.608 360.858 525.501 360.634 526.602 360.634C527.575 360.634 528.424 360.834 529.151 361.234C529.883 361.634 530.45 362.231 530.85 363.025C531.256 363.813 531.459 364.798 531.459 365.979V375H528.698V366.312C528.698 365.272 528.431 364.465 527.895 363.893C527.36 363.314 526.615 363.025 525.661 363.025C525.008 363.025 524.423 363.163 523.906 363.44C523.396 363.717 522.992 364.124 522.697 364.659C522.408 365.188 522.263 365.829 522.263 366.58ZM541.117 375.286C539.787 375.286 538.627 374.982 537.636 374.372C536.645 373.763 535.875 372.91 535.328 371.815C534.78 370.719 534.506 369.439 534.506 367.974C534.506 366.503 534.78 365.216 535.328 364.114C535.875 363.013 536.645 362.157 537.636 361.548C538.627 360.938 539.787 360.634 541.117 360.634C542.446 360.634 543.606 360.938 544.597 361.548C545.588 362.157 546.358 363.013 546.906 364.114C547.454 365.216 547.727 366.503 547.727 367.974C547.727 369.439 547.454 370.719 546.906 371.815C546.358 372.91 545.588 373.763 544.597 374.372C543.606 374.982 542.446 375.286 541.117 375.286ZM541.126 372.969C541.988 372.969 542.702 372.741 543.268 372.286C543.834 371.83 544.253 371.224 544.524 370.467C544.801 369.71 544.939 368.875 544.939 367.964C544.939 367.06 544.801 366.229 544.524 365.472C544.253 364.708 543.834 364.096 543.268 363.634C542.702 363.173 541.988 362.942 541.126 362.942C540.258 362.942 539.538 363.173 538.965 363.634C538.399 364.096 537.977 364.708 537.7 365.472C537.43 366.229 537.294 367.06 537.294 367.964C537.294 368.875 537.43 369.71 537.7 370.467C537.977 371.224 538.399 371.83 538.965 372.286C539.538 372.741 540.258 372.969 541.126 372.969ZM553.57 356.091V375H550.809V356.091H553.57ZM562.593 375.277C561.448 375.277 560.426 374.985 559.527 374.4C558.635 373.809 557.933 372.969 557.422 371.879C556.917 370.784 556.665 369.469 556.665 367.937C556.665 366.404 556.92 365.093 557.431 364.004C557.948 362.914 558.656 362.08 559.555 361.501C560.454 360.923 561.472 360.634 562.611 360.634C563.491 360.634 564.199 360.781 564.735 361.077C565.276 361.366 565.695 361.705 565.99 362.092C566.292 362.48 566.526 362.822 566.692 363.117H566.858V356.091H569.619V375H566.923V372.793H566.692C566.526 373.095 566.286 373.44 565.972 373.827C565.664 374.215 565.239 374.554 564.698 374.843C564.156 375.132 563.454 375.277 562.593 375.277ZM563.202 372.923C563.996 372.923 564.667 372.713 565.215 372.295C565.769 371.87 566.187 371.282 566.47 370.531C566.76 369.78 566.904 368.906 566.904 367.909C566.904 366.924 566.763 366.062 566.48 365.324C566.196 364.585 565.781 364.01 565.233 363.597C564.685 363.185 564.008 362.979 563.202 362.979C562.371 362.979 561.678 363.194 561.124 363.625C560.57 364.056 560.152 364.644 559.869 365.388C559.592 366.133 559.453 366.973 559.453 367.909C559.453 368.857 559.595 369.71 559.878 370.467C560.161 371.224 560.58 371.824 561.134 372.267C561.694 372.704 562.383 372.923 563.202 372.923ZM573.559 375V360.818H576.32V375H573.559ZM574.953 358.63C574.473 358.63 574.061 358.47 573.716 358.15C573.377 357.824 573.208 357.436 573.208 356.987C573.208 356.531 573.377 356.143 573.716 355.823C574.061 355.497 574.473 355.334 574.953 355.334C575.433 355.334 575.843 355.497 576.181 355.823C576.526 356.143 576.698 356.531 576.698 356.987C576.698 357.436 576.526 357.824 576.181 358.15C575.843 358.47 575.433 358.63 574.953 358.63ZM582.794 366.58V375H580.034V360.818H582.683V363.126H582.859C583.185 362.375 583.696 361.772 584.392 361.317C585.093 360.861 585.977 360.634 587.041 360.634C588.008 360.634 588.854 360.837 589.58 361.243C590.307 361.643 590.87 362.24 591.27 363.034C591.67 363.828 591.87 364.81 591.87 365.979V375H589.11V366.312C589.11 365.284 588.842 364.481 588.306 363.902C587.771 363.317 587.035 363.025 586.1 363.025C585.459 363.025 584.89 363.163 584.392 363.44C583.899 363.717 583.508 364.124 583.219 364.659C582.936 365.188 582.794 365.829 582.794 366.58ZM601.519 380.614C600.392 380.614 599.423 380.466 598.61 380.17C597.804 379.875 597.145 379.484 596.634 378.998C596.124 378.512 595.742 377.979 595.49 377.401L597.862 376.422C598.029 376.693 598.25 376.979 598.527 377.281C598.81 377.588 599.192 377.85 599.672 378.065C600.158 378.281 600.783 378.388 601.546 378.388C602.593 378.388 603.458 378.133 604.141 377.622C604.824 377.117 605.166 376.311 605.166 375.203V372.415H604.99C604.824 372.716 604.584 373.052 604.27 373.421C603.962 373.79 603.538 374.111 602.996 374.381C602.454 374.652 601.749 374.788 600.882 374.788C599.761 374.788 598.752 374.526 597.853 374.003C596.961 373.473 596.253 372.695 595.73 371.667C595.213 370.633 594.954 369.362 594.954 367.854C594.954 366.346 595.209 365.053 595.72 363.976C596.237 362.899 596.945 362.074 597.844 361.501C598.743 360.923 599.761 360.634 600.9 360.634C601.78 360.634 602.491 360.781 603.033 361.077C603.575 361.366 603.996 361.705 604.298 362.092C604.606 362.48 604.843 362.822 605.009 363.117H605.212V360.818H607.917V375.314C607.917 376.533 607.634 377.533 607.068 378.315C606.501 379.096 605.735 379.675 604.769 380.05C603.808 380.426 602.725 380.614 601.519 380.614ZM601.491 372.498C602.285 372.498 602.956 372.313 603.504 371.944C604.058 371.568 604.476 371.033 604.759 370.337C605.049 369.636 605.193 368.795 605.193 367.817C605.193 366.863 605.052 366.022 604.769 365.296C604.485 364.57 604.07 364.004 603.522 363.597C602.974 363.185 602.297 362.979 601.491 362.979C600.66 362.979 599.968 363.194 599.414 363.625C598.86 364.05 598.441 364.628 598.158 365.361C597.881 366.093 597.742 366.912 597.742 367.817C597.742 368.746 597.884 369.562 598.167 370.263C598.45 370.965 598.869 371.513 599.423 371.907C599.983 372.301 600.672 372.498 601.491 372.498Z" fill="black"/>
<circle cx="428.873" cy="366.09" r="11.873" fill="#AE8FDA"/>
<circle cx="179.873" cy="366.09" r="11.873" fill="#5C34A2"/>
</g>
<defs>
<linearGradient id="paint0_linear_269_1078" x1="376.182" y1="84.0237" x2="376.182" y2="301.51" gradientUnits="userSpaceOnUse">
<stop stop-color="#5C34A2"/>
<stop offset="1" stop-color="#D9D9D9" stop-opacity="0"/>
</linearGradient>
<linearGradient id="paint1_linear_269_1078" x1="375.5" y1="112.111" x2="375.5" y2="314.644" gradientUnits="userSpaceOnUse">
<stop stop-color="#AE8FDA"/>
<stop offset="1" stop-color="#D9D9D9" stop-opacity="0"/>
</linearGradient>
<clipPath id="clip0_269_1078">
<rect width="751" height="393" rx="20" fill="white"/>
</clipPath>
</defs>
</svg>
