<svg width="368" height="179" viewBox="0 0 368 179" fill="none" xmlns="http://www.w3.org/2000/svg">
<g opacity="0.6">
<rect width="25" height="179" rx="12.5" fill="#5C34A2"/>
<rect x="43" y="22" width="24" height="157" rx="12" fill="#5C34A2"/>
<rect x="85" y="76" width="26" height="103" rx="13" fill="#5C34A2"/>
<rect x="129" y="41" width="25" height="138" rx="12.5" fill="#5C34A2"/>
<rect x="172" y="12" width="24" height="167" rx="12" fill="#5C34A2"/>
<rect x="214" y="41" width="25" height="138" rx="12.5" fill="#5C34A2"/>
<rect x="257" y="76" width="26" height="103" rx="13" fill="#5C34A2"/>
<rect x="343" y="100" width="25" height="79" rx="12.5" fill="#5C34A2"/>
<rect x="301" y="41" width="24" height="138" rx="12" fill="#6902FF"/>
<path d="M7 32L50.8634 84.5274L93.6908 95.1008L138.245 60.3102L179.691 74.9768L223.9 55.8761L266.382 95.1008H305.755L351 120" stroke="#7B30FF" stroke-width="4" stroke-linecap="round"/>
</g>
</svg>
