<svg width="60" height="54" viewBox="0 0 60 54" fill="none" xmlns="http://www.w3.org/2000/svg">
<rect width="60" height="54" rx="8" fill="#EEE2FF"/>
<path d="M17.5896 35.0019L24.3938 28.1977C24.7771 27.8144 25.2243 27.6304 25.7354 27.6457C26.2466 27.6611 26.6938 27.861 27.0771 28.2457C27.4285 28.629 27.6042 29.0762 27.6042 29.5873C27.6042 30.0984 27.4285 30.5457 27.0771 30.929L18.9792 39.0748C18.5959 39.4582 18.1486 39.6498 17.6375 39.6498C17.1264 39.6498 16.6792 39.4582 16.2959 39.0748L12.175 34.954C11.8236 34.6026 11.6479 34.1554 11.6479 33.6123C11.6479 33.0693 11.8236 32.622 12.175 32.2707C12.5264 31.9193 12.9736 31.7436 13.5167 31.7436C14.0598 31.7436 14.507 31.9193 14.8584 32.2707L17.5896 35.0019ZM17.5896 19.6686L24.3938 12.8644C24.7771 12.4811 25.2243 12.2971 25.7354 12.3124C26.2466 12.3277 26.6938 12.5277 27.0771 12.9123C27.4285 13.2957 27.6042 13.7429 27.6042 14.254C27.6042 14.7651 27.4285 15.2123 27.0771 15.5957L18.9792 23.7415C18.5959 24.1248 18.1486 24.3165 17.6375 24.3165C17.1264 24.3165 16.6792 24.1248 16.2959 23.7415L12.175 19.6207C11.8236 19.2693 11.6479 18.822 11.6479 18.279C11.6479 17.7359 11.8236 17.2887 12.175 16.9373C12.5264 16.5859 12.9736 16.4102 13.5167 16.4102C14.0598 16.4102 14.507 16.5859 14.8584 16.9373L17.5896 19.6686ZM33.8334 36.5832C33.2903 36.5832 32.8354 36.3992 32.4687 36.0312C32.102 35.6632 31.918 35.2083 31.9167 34.6665C31.9154 34.1247 32.0994 33.6698 32.4687 33.3018C32.838 32.9338 33.2929 32.7498 33.8334 32.7498H47.25C47.7931 32.7498 48.2486 32.9338 48.6166 33.3018C48.9846 33.6698 49.168 34.1247 49.1667 34.6665C49.1654 35.2083 48.9814 35.6638 48.6147 36.0331C48.248 36.4023 47.7931 36.5857 47.25 36.5832H33.8334ZM33.8334 21.2498C33.2903 21.2498 32.8354 21.0658 32.4687 20.6978C32.102 20.3298 31.918 19.8749 31.9167 19.3332C31.9154 18.7914 32.0994 18.3365 32.4687 17.9685C32.838 17.6005 33.2929 17.4165 33.8334 17.4165H47.25C47.7931 17.4165 48.2486 17.6005 48.6166 17.9685C48.9846 18.3365 49.168 18.7914 49.1667 19.3332C49.1654 19.8749 48.9814 20.3305 48.6147 20.6997C48.248 21.069 47.7931 21.2524 47.25 21.2498H33.8334Z" fill="#AE8FDA"/>
</svg>
