<svg width="60" height="54" viewBox="0 0 60 54" fill="none" xmlns="http://www.w3.org/2000/svg">
<rect width="60" height="54" rx="8" fill="#EEE2FF"/>
<path d="M45.343 19.3333V13.5833H14.6764V19.3333H45.343ZM45.343 23.1667H14.6764V40.4167H45.343V23.1667ZM12.7597 9.75H47.2597C47.768 9.75 48.2555 9.95193 48.615 10.3114C48.9744 10.6708 49.1764 11.1583 49.1764 11.6667V42.3333C49.1764 42.8417 48.9744 43.3292 48.615 43.6886C48.2555 44.0481 47.768 44.25 47.2597 44.25H12.7597C12.2514 44.25 11.7638 44.0481 11.4044 43.6886C11.045 43.3292 10.843 42.8417 10.843 42.3333V11.6667C10.843 11.1583 11.045 10.6708 11.4044 10.3114C11.7638 9.95193 12.2514 9.75 12.7597 9.75ZM28.093 30.8333H39.593V34.6667H19.468L28.093 26.0417V30.8333Z" fill="#AE8FDA"/>
</svg>
