<svg width="60" height="54" viewBox="0 0 60 54" fill="none" xmlns="http://www.w3.org/2000/svg">
<rect width="60" height="54" rx="8" fill="#EEE2FF"/>
<path fill-rule="evenodd" clip-rule="evenodd" d="M30.7072 46.2998C29.2362 45.4326 27.7932 44.5189 26.3803 43.5599C24.939 42.5824 23.5552 41.5282 22.2288 40.3974C20.9121 39.2608 19.6777 38.0399 18.5258 36.7347C17.3758 35.4265 16.361 34.0034 15.5071 32.4854C14.648 30.9504 13.9725 29.3196 13.4946 27.6267C12.9922 25.8319 12.7416 23.9761 12.75 22.1124V12.9124L14.1875 11.4749C15.1458 11.4749 16.0754 11.4404 16.9762 11.3714C17.8291 11.3043 18.6744 11.1817 19.512 11.0034C20.3285 10.8232 21.1258 10.5779 21.904 10.2674C22.7224 9.92816 23.5044 9.51895 24.25 9.03978C25.3049 8.34508 26.4503 7.79852 27.654 7.41541C29.5205 6.87607 31.4799 6.73695 33.404 7.00716C34.6414 7.1786 35.8425 7.55051 36.9603 8.10828C37.5315 8.3862 38.0873 8.69478 38.6278 9.03403C39.3772 9.5132 40.164 9.92336 40.9882 10.2645C41.7645 10.5769 42.5608 10.8223 43.3773 11.0005C44.2168 11.1807 45.064 11.3043 45.9188 11.3714C46.8139 11.4385 47.7406 11.472 48.699 11.472L50.1365 12.9095V22.1095C50.1478 23.9738 49.9001 25.8306 49.4005 27.6267C48.9225 29.3196 48.247 30.9504 47.388 32.4854C46.5307 34.002 45.5191 35.4259 44.3692 36.7347C43.2192 38.038 41.9868 39.2551 40.672 40.3859C39.3454 41.5181 37.9555 42.574 36.509 43.5484C35.0905 44.509 33.6427 45.4256 32.1677 46.2969H30.7072V46.2998ZM15.625 14.3212V22.1124C15.6135 23.708 15.8262 25.3037 16.2575 26.8418C16.6714 28.3182 17.2602 29.7399 18.0112 31.0767C18.7702 32.4222 19.6615 33.6757 20.685 34.8372C21.7487 36.0389 22.8872 37.164 24.1005 38.2124C25.3425 39.2723 26.6381 40.2594 27.9875 41.1737C29.1375 41.9403 30.2875 42.6773 31.4375 43.3845C32.5875 42.6888 33.7375 41.9528 34.8875 41.1765C36.2406 40.2584 37.5392 39.2704 38.7831 38.2124C39.9944 37.164 41.131 36.0408 42.1928 34.8429C43.211 33.6847 44.107 32.4245 44.8666 31.0824C45.617 29.7455 46.2063 28.3224 46.6203 26.8475C47.0516 25.3037 47.2615 23.7138 47.2528 22.1124V14.3212C46.7957 14.3212 46.353 14.2867 45.916 14.255L45.6888 14.2378C44.7052 14.1598 43.7276 14.0187 42.7621 13.8152C40.7455 13.3755 38.8223 12.5832 37.0811 11.4749C36.6338 11.1908 36.1712 10.9317 35.6953 10.6987C34.8419 10.2778 33.9266 9.99631 32.9842 9.86491C31.4864 9.64666 29.9594 9.75056 28.505 10.1697C27.5505 10.4802 26.6391 10.9172 25.8025 11.4692C24.9055 12.0442 23.9634 12.5358 22.9763 12.944C22.0437 13.3162 21.0821 13.6114 20.1013 13.8267C19.1372 14.0298 18.1626 14.1697 17.1775 14.2464C16.6753 14.2771 16.1578 14.302 15.625 14.3212ZM33.0618 26.6837C33.9883 26.3069 34.755 25.6199 35.2308 24.7402C35.7065 23.8605 35.8617 22.8427 35.6698 21.8612C35.4779 20.8797 34.9508 19.9954 34.1787 19.3596C33.4066 18.7239 32.4376 18.3763 31.4375 18.3763C30.4373 18.3763 29.4683 18.7239 28.6962 19.3596C27.9241 19.9954 27.397 20.8797 27.2051 21.8612C27.0132 22.8427 27.1684 23.8605 27.6441 24.7402C28.1199 25.6199 28.8866 26.3069 29.8131 26.6837L28.5625 34.1874H34.3125L33.0618 26.6837Z" fill="#AE8FDA"/>
</svg>
